<svg xmlns="http://www.w3.org/2000/svg" xmlns:xlink="http://www.w3.org/1999/xlink" fill="none" version="1.1" width="16" height="16" viewBox="0 0 16 16"><g><g><path d="M3.0897788936638833,0.10488889366388321C1.6177788936638833,0.4515558936638832,0.4515558936638832,1.6177788936638833,0.10488889366388321,3.0897788936638833L3.0897788936638833,0.10488889366388321Z" fill="#FF6968" fill-opacity="1"/></g><g><path d="M4.26133,0L4,0C1.80089,0,0,1.80089,0,4L0,4.26133L4.26133,0Z" fill="#FF6867" fill-opacity="1"/></g><g><path d="M5.328,0L4,0C1.80089,0,0,1.80089,0,4L0,5.328L5.328,0Z" fill="#FF6866" fill-opacity="1"/></g><g><path d="M6.39289,0L4,0C1.80089,0,0,1.80089,0,4L0,6.39289L6.39289,0Z" fill="#FF6765" fill-opacity="1"/></g><g><path d="M7.45956,0L4,0C3.65511,0,3.31911,0.0444444,2.99911,0.128L0.128,2.99911C0.0444444,3.31911,0,3.65511,0,4L0,7.45956L7.45956,0Z" fill="#FF6764" fill-opacity="1"/></g><g><path d="M0,8.52622L8.52622,0L4.19378,0L0,4.19378L0,8.52622Z" fill="#FF6763" fill-opacity="1"/></g><g><path d="M0,9.59289L9.59289,0L5.25867,0L0,5.25867L0,9.59289Z" fill="#FF6662" fill-opacity="1"/></g><g><path d="M0,6.32533L0,10.6578L10.6578,0L6.32533,0L0,6.32533Z" fill="#FF6661" fill-opacity="1"/></g><g><path d="M0,7.392L0,11.7244L11.7244,0L7.392,0L0,7.392Z" fill="#FF6560" fill-opacity="1"/></g><g><path d="M12,0L8.45867,0L0,8.45867L0,12C0,12.2471,0.0231111,12.4889,0.0657778,12.7253L12.7236,0.0675556C12.4889,0.0231111,12.2471,0,12,0Z" fill="#FF655F" fill-opacity="1"/></g><g><path d="M12,0L9.52355,0L0,9.52355L0,12C0,12.5476,0.112,13.0684,0.312889,13.5449L13.5449,0.312889C13.0684,0.112,12.5476,0,12,0Z" fill="#FF655E" fill-opacity="1"/></g><g><path d="M14.2364,0.688C13.5964,0.254222,12.8267,0,12,0L10.5902,0L0,10.5902L0,12C0,12.8267,0.254222,13.5964,0.688,14.2364L14.2364,0.688Z" fill="#FF645D" fill-opacity="1"/></g><g><path d="M14.8196,1.16978C14.096,0.448,13.0969,0,12,0L11.6569,0L0,11.6569L0,12C0,13.0969,0.448,14.096,1.16978,14.8196L14.8196,1.16978Z" fill="#FF645C" fill-opacity="1"/></g><g><path d="M0.0568888895213604,12.666711117660999C0.2417778895213604,13.756411117660999,0.8711108895213604,14.702211117661,1.7528888895213603,15.303111117660999L15.30488888952136,1.7511111176609993C14.702188889521361,0.8711111176609992,13.75818888952136,0.2400001176609993,12.66848888952136,0.0551111176609993L0.0568888895213604,12.666711117660999Z" fill="#FF635B" fill-opacity="1"/></g><g><path d="M0.29333335161209106,13.49693335161209C0.6915553516120911,14.47643335161209,1.470223351612091,15.26753335161209,2.440893351612091,15.681733351612092L15.681733351612092,2.440893351612091C15.26753335161209,1.4684433516120912,14.47643335161209,0.6915553516120911,13.49693335161209,0.29333335161209106L0.29333335161209106,13.49693335161209Z" fill="#FF635A" fill-opacity="1"/></g><g><path d="M0.6613333821296692,14.19553338212967C1.2480003821296692,15.08263338212967,2.1777733821296694,15.726233382129669,3.258663382129669,15.930633382129669L15.930633382129669,3.258663382129669C15.726233382129669,2.1777733821296694,15.08263338212967,1.2480003821296692,14.19553338212967,0.6613333821296692L0.6613333821296692,14.19553338212967Z" fill="#FF635A" fill-opacity="1"/></g><g><path d="M16.0000000371933,4.000000037193298C16.0000000371933,2.880000037193298,15.534200037193298,1.8648890371932985,14.7858000371933,1.1360000371932983L1.1360000371932983,14.7858000371933C1.8648890371932985,15.534200037193298,2.880000037193298,16.0000000371933,4.000000037193298,16.0000000371933L4.254220037193298,16.0000000371933L16.0000000371933,4.254220037193298L16.0000000371933,4.000000037193298Z" fill="#FF6259" fill-opacity="1"/></g><g><path d="M16.000000131607056,4.000000131607056C16.000000131607056,3.150220131607056,15.731600131607056,2.3608891316070557,15.276400131607055,1.7120001316070557L1.7120001316070557,15.276400131607055C2.3608891316070557,15.731600131607056,3.150220131607056,16.000000131607056,4.000000131607056,16.000000131607056L5.320890131607056,16.000000131607056L16.000000131607056,5.320890131607056L16.000000131607056,4.000000131607056Z" fill="#FF6258" fill-opacity="1"/></g><g><path d="M15.99998902282715,3.9999990228271485C15.99998902282715,3.4293290228271482,15.879089022827149,2.8853330228271483,15.660489022827148,2.3928890228271484L2.3928890228271484,15.660489022827148C2.8853330228271483,15.879089022827149,3.4293290228271482,15.99998902282715,3.9999990228271485,15.99998902282715L6.387559022827149,15.99998902282715L15.99998902282715,6.387559022827149L15.99998902282715,3.9999990228271485Z" fill="#FF6157" fill-opacity="1"/></g><g><path d="M3.999999935028076,15.999977935028076L7.452447935028077,15.999977935028076L15.999977935028076,7.452447935028077L15.999977935028076,3.999999935028076C15.999977935028076,3.726221935028076,15.971577935028076,3.4595559350280762,15.919977935028076,3.201777935028076L3.201777935028076,15.919977935028076C3.4595559350280762,15.971577935028076,3.726221935028076,15.999977935028076,3.999999935028076,15.999977935028076Z" fill="#FF6156" fill-opacity="1"/></g><g><path d="M8.51910696548462,15.999966965484619L15.999966965484619,8.51910696548462L15.999966965484619,4.186666965484619L4.186666965484619,15.999966965484619L8.51910696548462,15.999966965484619Z" fill="#FF6155" fill-opacity="1"/></g><g><path d="M9.58577309173584,16.00003309173584L16.00003309173584,9.58577309173584L16.00003309173584,5.25333309173584L5.25333309173584,16.00003309173584L9.58577309173584,16.00003309173584Z" fill="#FF6054" fill-opacity="1"/></g><g><path d="M10.652442522735596,16.000002522735596L16.000002522735596,10.652442522735596L16.000002522735596,6.318222522735596L6.318222522735596,16.000002522735596L10.652442522735596,16.000002522735596Z" fill="#FF6053" fill-opacity="1"/></g><g><path d="M11.717328648986816,15.999998648986816L15.999998648986816,11.717328648986816L15.999998648986816,7.384888648986816L7.384888648986816,15.999998648986816L11.717328648986816,15.999998648986816Z" fill="#FF5F52" fill-opacity="1"/></g><g><path d="M15.999996205749511,11.999996205749511L15.999996205749511,8.451556205749512L8.451556205749512,15.999996205749511L11.999996205749511,15.999996205749511C12.303996205749511,15.999996205749511,12.599116205749512,15.96622620574951,12.883556205749512,15.90044620574951L15.90044620574951,12.883556205749512C15.96622620574951,12.599116205749512,15.999996205749511,12.303996205749511,15.999996205749511,11.999996205749511Z" fill="#FF5F51" fill-opacity="1"/></g><g><path d="M16.00000280883789,9.51822280883789L9.51822280883789,16.00000280883789L12.000002808837891,16.00000280883789C14.20089280883789,16.00000280883789,16.00000280883789,14.19911280883789,16.00000280883789,12.000002808837891L16.00000280883789,9.51822280883789Z" fill="#FF5F50" fill-opacity="1"/></g><g><path d="M16.00000176300049,10.583111763000488L10.583111763000488,16.00000176300049L12.000001763000489,16.00000176300049C14.200891763000488,16.00000176300049,16.00000176300049,14.199111763000488,16.00000176300049,12.000001763000489L16.00000176300049,10.583111763000488Z" fill="#FF5E4F" fill-opacity="1"/></g><g><path d="M15.999998366088867,11.649778366088867L11.649778366088867,15.999998366088867L12.000000366088868,15.999998366088867C14.200888366088867,15.999998366088867,15.999998366088867,14.199108366088867,15.999998366088867,12.000000366088868L15.999998366088867,11.649778366088867Z" fill="#FF5E4E" fill-opacity="1"/></g><g><path d="M15.9200048928833,12.7964448928833L12.7964448928833,15.9200048928833C14.3608848928833,15.600004892883302,15.600004892883302,14.3608848928833,15.9200048928833,12.7964448928833Z" fill="#FF5D4D" fill-opacity="1"/></g><g><path d="M10.880000495910645,11.920000362396241L5.120000495910644,11.920000362396241C4.766222495910645,11.920000362396241,4.4800004959106445,11.63378036239624,4.4800004959106445,11.28000036239624L4.4800004959106445,7.12000036239624L11.520000495910644,7.12000036239624L11.520000495910644,11.28000036239624C11.520000495910644,11.63378036239624,11.233780495910644,11.920000362396241,10.880000495910645,11.920000362396241Z" fill="#FFCDCB" fill-opacity="1"/></g><g><path d="M10.559998722229004,5.999999923706055L7.999999722229004,5.999999923706055C7.870221722229004,5.999999923706055,7.754666522229004,5.921779923706055,7.704888722229004,5.802669923706055C7.655110922229004,5.683559923706055,7.683555392229004,5.544889923706055,7.7742220222290035,5.454219923706055L9.054218722229004,4.174222123706055C9.114668722229004,4.113777723706055,9.196448722229004,4.079999923706055,9.279998722229005,4.079999923706055C10.161778722229004,4.079999923706055,10.879998722229004,4.798221923706055,10.879998722229004,5.679999923706054C10.879998722229004,5.8559999237060545,10.735998722229004,5.999999923706055,10.559998722229004,5.999999923706055ZM8.773328722229003,5.359999923706055L10.186668722229005,5.359999923706055C10.067558722229004,5.0257779237060545,9.768888722229004,4.7751109237060545,9.406218722229005,4.7271109237060545L8.773328722229003,5.359999923706055Z" fill="#FFFFFF" fill-opacity="1"/></g><g><path d="M8.00000036239624,5.999999923706055L5.4400003623962405,5.999999923706055C5.26400036239624,5.999999923706055,5.12000036239624,5.8559999237060545,5.12000036239624,5.679999923706054C5.12000036239624,4.798221923706055,5.83822236239624,4.079999923706055,6.72000036239624,4.079999923706055C6.805330362396241,4.079999923706055,6.88711036239624,4.113777723706055,6.94578036239624,4.174222123706055L8.22578036239624,5.454219923706055C8.31822036239624,5.546669923706054,8.34489036239624,5.683559923706055,8.29511036239624,5.802669923706055C8.24533036239624,5.921779923706055,8.12978036239624,5.999999923706055,8.00000036239624,5.999999923706055ZM5.81511136239624,5.359999923706055L7.22844036239624,5.359999923706055L6.59556036239624,4.7271109237060545C6.23289036239624,4.7751109237060545,5.93422236239624,5.0257779237060545,5.81511136239624,5.359999923706055Z" fill="#FFFFFF" fill-opacity="1"/></g><g><path d="M12.00000015258789,7.279999675750732L4.000000152587891,7.279999675750732C3.9111112525878906,7.279999675750732,3.8400001525878906,7.208889675750733,3.8400001525878906,7.119999675750733L3.8400001525878906,6.159999675750733C3.8400001525878906,5.9839996757507325,3.9840001525878908,5.839999675750732,4.160000152587891,5.839999675750732L11.84000015258789,5.839999675750732C12.01600015258789,5.839999675750732,12.160000152587891,5.9839996757507325,12.160000152587891,6.159999675750733L12.160000152587891,7.119999675750733C12.160000152587891,7.208889675750733,12.08889015258789,7.279999675750732,12.00000015258789,7.279999675750732Z" fill="#FFE9E9" fill-opacity="1"/></g><g><path d="M7.359999656677246,7.279999732971191L8.639999656677245,7.279999732971191L8.639999656677245,11.919999732971192L7.359999656677246,11.919999732971192L7.359999656677246,7.279999732971191Z" fill="#FFF5F5" fill-opacity="1"/></g><g><path d="M7.359999656677246,5.839999675750732L8.639999656677245,5.839999675750732L8.639999656677245,7.279999675750732L7.359999656677246,7.279999675750732L7.359999656677246,5.839999675750732Z" fill="#FFFFFF" fill-opacity="1"/></g></g></svg>