<?xml version="1.0" encoding="UTF-8"?>
<svg width="74px" height="74px" viewBox="0 0 74 74" version="1.1" xmlns="http://www.w3.org/2000/svg" xmlns:xlink="http://www.w3.org/1999/xlink">
    <title> </title>
    <defs>
        <linearGradient x1="50%" y1="0%" x2="50%" y2="100%" id="linearGradient-1">
            <stop stop-color="#FEAD71" offset="0%"></stop>
            <stop stop-color="#FF704A" offset="100%"></stop>
        </linearGradient>
    </defs>
    <g id="餐饮预订商家版" stroke="none" stroke-width="1" fill="none" fill-rule="evenodd">
        <g id="首页" transform="translate(-69.000000, -747.000000)">
            <rect fill="#FAFAFA" x="0" y="0" width="750" height="1895"></rect>
            <rect id="矩形备份-11" fill="#FFFFFF" x="18" y="593" width="700" height="290" rx="10"></rect>
            <g id="编组-12" transform="translate(69.000000, 747.000000)">
                <rect id="矩形" x="0" y="0" width="74" height="74"></rect>
                <g id="编组-11" transform="translate(3.000000, 3.000000)">
                    <g id="编组" transform="translate(0.000000, 4.000000)">
                        <g transform="translate(-0.000000, 0.000000)">
                            <polygon id="Fill-2" points="2.67637474e-05 64 64 64 64 0 2.67637474e-05 0"></polygon>
                            <path d="M58.9957029,19.0712549 L3.74689513,19.3437352 L3.74309509,19.3437352 C2.96788656,19.358873 2.3256795,18.7495767 2.31005106,17.9775491 C2.29147912,17.2055214 2.90708589,16.5659495 3.67849438,16.5508117 C3.69749459,16.5470273 3.7164948,16.5470273 3.73549501,16.5508117 L58.9843028,16.2783314 L58.9919029,16.2783314 C59.7633114,16.2631936 60.4055185,16.8724899 60.4247959,17.6445175 C60.4397188,18.4165452 59.8279121,19.0561171 59.0527036,19.0712549 L58.9957029,19.0712549 Z M33.8546264,50.2059183 L24.2633208,50.2059183 C24.0315183,50.2059183 23.8415162,50.0204803 23.8415162,49.7858444 L23.8415162,45.4829257 C23.8415162,45.2482899 24.0315183,45.0590674 24.2633208,45.0590674 L34.2004302,45.0590674 C37.0618616,45.0590674 39.3760871,42.9208536 39.3760871,40.2793081 C39.3760871,39.9349232 39.3266866,39.5867539 39.2392856,39.2499379 C38.8554814,37.9821474 37.9966719,36.9073639 36.8376592,36.2564386 C36.2638529,35.9007004 35.6178458,35.6660645 34.9414383,35.5714533 C34.6944356,35.5449622 34.4474329,35.5260399 34.1966301,35.5071177 C33.7102248,35.4768421 33.2238194,35.4881954 32.733614,35.4881954 C31.8900047,35.4881954 31.0881959,35.5071177 30.2635869,35.5071177 L30.2635869,38.3265323 C30.2597868,38.5838749 30.0545846,38.7920196 29.7961817,38.7882351 C29.7163808,38.7882351 29.64038,38.7693129 29.5719792,38.7314684 L18.5404579,32.6914875 C18.2478547,32.5363251 18.1452535,32.1730179 18.3010552,31.8853998 C18.3504558,31.7907886 18.4264566,31.7150996 18.5176576,31.6621173 L29.5567791,25.0696068 C29.7771815,24.9371511 30.0621846,25.0090556 30.1951861,25.2285537 C30.2407866,25.3004582 30.2597868,25.3799317 30.2635869,25.4631895 L30.2635869,29.6260836 L31.3883992,29.6260836 C32.821015,29.5579636 34.2536308,29.595808 35.6786464,29.7282638 C39.007483,30.2051044 41.8993149,32.2638447 43.4307317,35.2497751 C44.1983402,36.9262861 44.5859444,38.7503906 44.551744,40.5934174 C44.452943,46.2625222 39.5584891,50.2059183 33.8546264,50.2059183 L33.8546264,50.2059183 Z M62.5981426,16.8838432 C62.5905425,15.559286 62.180138,14.2650044 61.4277297,13.175083 L54.6674553,5.7613471 C53.5350429,4.14538729 51.6768224,3.18792165 49.6970006,3.20288259 L31.2173973,3.29388623 L12.737794,3.38471301 C10.7579723,3.38471301 8.90735191,4.3611009 7.79393966,5.9921985 L1.13626641,13.4740545 C0.391458218,14.5715448 -0.00374612957,15.8658264 2.67637474e-05,17.1903836 L0.186255961,53.8465584 C0.243256588,57.1314603 2.9526864,59.7465147 6.25112268,59.6935324 L31.5176007,59.57243 L56.7840786,59.4475432 C60.0749148,59.4702499 62.7653444,56.8249199 62.7843446,53.5438025 L62.7843446,53.540018 L62.5981426,16.8838432 Z" id="Fill-4" fill="url(#linearGradient-1)"></path>
                        </g>
                    </g>
                    <circle id="椭圆形备份-6" cx="56" cy="13" r="13"></circle>
                </g>
            </g>
        </g>
    </g>
</svg>