<?xml version="1.0" encoding="UTF-8"?>
<svg width="74px" height="74px" viewBox="0 0 74 74" version="1.1" xmlns="http://www.w3.org/2000/svg" xmlns:xlink="http://www.w3.org/1999/xlink">
    <title>首页</title>
    <defs>
        <polygon id="path-1" points="0 0 60 0 60 60 0 60"></polygon>
        <linearGradient x1="50%" y1="0%" x2="50%" y2="100%" id="linearGradient-3">
            <stop stop-color="#00B6FF" offset="0%"></stop>
            <stop stop-color="#00A7FF" offset="100%"></stop>
        </linearGradient>
    </defs>
    <g id="餐饮预订商家版" stroke="none" stroke-width="1" fill="none" fill-rule="evenodd">
        <g id="首页" transform="translate(-69.000000, -612.000000)">
            <rect fill="#FAFAFA" x="0" y="0" width="750" height="1895"></rect>
            <rect id="矩形备份-11" fill="#FFFFFF" x="18" y="593" width="700" height="290" rx="10"></rect>
            <g id="编组-4" transform="translate(69.000000, 612.000000)">
                <rect id="矩形" x="0" y="0" width="74" height="74"></rect>
                <g id="编组" transform="translate(7.000000, 12.000000)">
                    <mask id="mask-2" fill="white">
                        <use xlink:href="#path-1"></use>
                    </mask>
                    <g id="Clip-2"></g>
                    <path d="M50.7919901,38.9244302 L44.1268784,50.0359856 C43.8150135,50.5597761 43.299237,50.9276289 42.7114917,51.0635746 C42.5475627,51.0995602 42.3796355,51.1235506 42.2197048,51.1235506 C41.7838936,51.1235506 41.356079,50.9996002 40.9882384,50.7477009 L34.3191284,46.3014794 C33.2995702,45.6217513 33.0196915,44.2383047 33.7033952,43.2187125 C34.3831007,42.195122 35.7625029,41.9192323 36.7860594,42.6029588 L41.5160097,45.7536985 L46.9816413,36.6413435 C47.6093693,35.5857657 48.980775,35.2459016 50.0283211,35.8776489 C51.0838637,36.5093962 51.4237164,37.8688525 50.7919901,38.9244302 M43.3352214,26.6693323 C34.1312098,26.6693323 26.6664445,34.1343463 26.6664445,43.3386645 C26.6664445,52.534986 34.1312098,60 43.3352214,60 C52.5352347,60 60,52.534986 60,43.3386645 C60,34.1343463 52.539233,26.6693323 43.3352214,26.6693323 M15.5552594,40.0039984 L11.1131843,40.0039984 C9.88171792,40.0039984 8.8901476,39.0083966 8.8901476,37.7808876 C8.8901476,36.5493802 9.88171792,35.5577769 11.1131843,35.5577769 L15.5552594,35.5577769 C16.7867258,35.5577769 17.7782961,36.5493802 17.7782961,37.7808876 C17.7782961,39.0083966 16.7867258,40.0039984 15.5552594,40.0039984 M11.109186,22.2231108 L20.0013328,22.2231108 C21.2288009,22.2231108 22.2203712,23.2187125 22.2203712,24.4462215 C22.2203712,25.6777289 21.2288009,26.6693323 20.0013328,26.6693323 L11.109186,26.6693323 C9.88171792,26.6693323 8.8901476,25.6777289 8.8901476,24.4462215 C8.8901476,23.2187125 9.88171792,22.2231108 11.109186,22.2231108 M11.109186,8.88844462 L37.7776297,8.88844462 C39.0090961,8.88844462 40.0006664,9.88404638 40.0006664,11.1115554 C40.0006664,12.3430628 39.0090961,13.3346661 37.7776297,13.3346661 L11.109186,13.3346661 C9.88171792,13.3346661 8.8901476,12.3430628 8.8901476,11.1115554 C8.8901476,9.88404638 9.88171792,8.88844462 11.109186,8.88844462 M22.2203712,43.3386645 C22.2203712,31.6753299 31.6722753,22.2231108 43.3352214,22.2231108 C45.2543898,22.2231108 47.1175824,22.4830068 48.8888148,22.9668133 L48.8888148,4.44622151 C48.8888148,1.99520192 46.8936794,0 44.4427415,0 L4.44407423,0 C1.99313631,0 -0.00199913371,1.99520192 -0.00199913371,4.44622151 L-0.00199913371,51.1155538 C-0.00199913371,53.5665734 1.99313631,55.5577769 4.44407423,55.5577769 L26.1186819,55.5577769 C23.667744,52.1071571 22.2203712,47.8928429 22.2203712,43.3386645" id="Fill-1" fill="url(#linearGradient-3)" mask="url(#mask-2)"></path>
                </g>
                <circle id="椭圆形" cx="54" cy="15" r="13"></circle>
            </g>
        </g>
    </g>
</svg>