<?xml version="1.0" encoding="UTF-8"?>
<svg width="74px" height="74px" viewBox="0 0 74 74" version="1.1" xmlns="http://www.w3.org/2000/svg" xmlns:xlink="http://www.w3.org/1999/xlink">
    <title>首页</title>
    <defs>
        <polygon id="path-1" points="0 0 59 0 59 11.8145427 0 11.8145427"></polygon>
        <polygon id="path-3" points="0 0 59 0 59 41.1844113 0 41.1844113"></polygon>
        <linearGradient x1="50%" y1="0%" x2="50%" y2="100%" id="linearGradient-5">
            <stop stop-color="#34D3FF" offset="0%"></stop>
            <stop stop-color="#00AAFF" offset="100%"></stop>
        </linearGradient>
    </defs>
    <g id="餐饮预订商家版" stroke="none" stroke-width="1" fill="none" fill-rule="evenodd">
        <g id="首页" transform="translate(-248.000000, -612.000000)">
            <rect fill="#FAFAFA" x="0" y="0" width="750" height="1895"></rect>
            <rect id="矩形备份-11" fill="#FFFFFF" x="18" y="593" width="700" height="290" rx="10"></rect>
            <g id="编组-6" transform="translate(248.000000, 612.000000)">
                <rect id="矩形备份-3" x="0" y="0" width="74" height="74"></rect>
                <g id="编组-5" transform="translate(6.000000, 2.000000)">
                    <g id="编组" transform="translate(0.000000, 15.000000)">
                        <g>
                            <mask id="mask-2" fill="white">
                                <use xlink:href="#path-1"></use>
                            </mask>
                            <g id="Clip-2"></g>
                            <path d="M59,11.8145427 L0,11.8145427 L3.03463253,2.66903716 C3.56400732,1.07563418 5.09143902,-0.0017433293 6.80769231,-0.0017433293 L52.1889359,-0.0017433293 C53.908561,-0.0017433293 55.4292491,1.07563418 55.9653675,2.66903716 L59,11.8145427 Z" id="Fill-1" fill="#34D3FF" mask="url(#mask-2)"></path>
                        </g>
                        <g transform="translate(0.000000, 11.815589)">
                            <mask id="mask-4" fill="white">
                                <use xlink:href="#path-3"></use>
                            </mask>
                            <g id="Clip-4"></g>
                            <path d="M52.6120985,18.6989501 L48.3501257,23.1060865 C48.0803806,23.3850192 47.7330838,23.5209989 47.3756715,23.5209989 C47.021631,23.5209989 46.6709624,23.3850192 46.4012173,23.1060865 C45.8617271,22.5482211 45.8617271,21.6486632 46.4012173,21.0942845 L47.9960853,19.4485817 L39.5732941,19.4485817 C38.814636,19.4485817 38.197594,18.8140098 38.197594,18.0260249 C38.197594,17.2345534 38.8078923,16.5999816 39.5732941,16.5999816 L48.2253686,16.5999816 L46.4079609,14.7206726 C45.8684707,14.1628072 45.8684707,13.2632493 46.4079609,12.7123572 C46.9474511,12.1544919 47.8173791,12.1544919 48.3501257,12.7123572 L52.6120985,17.1194937 C53.0335753,17.555326 53.0335753,18.2631177 52.6120985,18.6989501 L52.6120985,18.6989501 Z M28.4024746,20.2993264 L8.54249057,20.2993264 C7.27131672,20.2993264 6.22942622,19.2289222 6.22942622,17.9074786 C6.22942622,16.5895216 7.26457309,15.5191174 8.54249057,15.5191174 L28.3957309,15.5191174 C29.6669048,15.5191174 30.7087953,16.5895216 30.7087953,17.9074786 C30.7087953,19.2289222 29.6736484,20.2993264 28.4024746,20.2993264 L28.4024746,20.2993264 Z M21.5071151,31.6379401 L8.54249057,31.6379401 C7.27131672,31.6379401 6.22942622,30.5675359 6.22942622,29.2460923 C6.22942622,27.9246487 7.26457309,26.8577312 8.54249057,26.8577312 L21.5003715,26.8577312 C22.7715453,26.8577312 23.8134358,27.9246487 23.8134358,29.2460923 C23.8134358,30.5675359 22.7782889,31.6379401 21.5071151,31.6379401 L21.5071151,31.6379401 Z M-0.00168590696,0 L-0.00168590696,37.3665202 C-0.00168590696,39.4759486 1.65387473,41.1844113 3.69382215,41.1844113 L55.3061778,41.1844113 C57.3461253,41.1844113 59.0016859,39.4759486 59.0016859,37.3665202 L59.0016859,0 L-0.00168590696,0 Z" id="Fill-3" fill="url(#linearGradient-5)" mask="url(#mask-4)"></path>
                        </g>
                    </g>
                    <circle id="椭圆形备份-3" cx="50" cy="13" r="13"></circle>
                </g>
            </g>
        </g>
    </g>
</svg>