<?xml version="1.0" encoding="UTF-8"?>
<svg width="36px" height="36px" viewBox="0 0 36 36" version="1.1" xmlns="http://www.w3.org/2000/svg" xmlns:xlink="http://www.w3.org/1999/xlink">
    <title>首页</title>
    <defs>
        <linearGradient x1="50%" y1="0%" x2="50%" y2="100%" id="linearGradient-1">
            <stop stop-color="#6EE49B" offset="0%"></stop>
            <stop stop-color="#51DF7C" offset="100%"></stop>
        </linearGradient>
    </defs>
    <g id="餐饮预订商家版" stroke="none" stroke-width="1" fill="none" fill-rule="evenodd">
        <g id="首页" transform="translate(-55.000000, -492.000000)">
            <rect fill="#FAFAFA" x="0" y="0" width="750" height="1895"></rect>
            <path d="M25,455 L725,455 L725,542 C725,547.522847 720.522847,552 715,552 L35,552 C29.4771525,552 25,547.522847 25,542 L25,455 L25,455 Z" id="矩形" fill="#FFFFFF"></path>
            <g id="完成" transform="translate(55.000000, 492.000000)" fill-rule="nonzero">
                <rect id="矩形" fill="#000000" opacity="0" x="0" y="0" width="36" height="36"></rect>
                <path d="M18.0065391,0.215859375 C8.22958594,0.215859375 0.2750625,8.1703125 0.2750625,17.9473359 C0.2750625,27.7243594 8.22955078,35.6788125 18.0065391,35.6788125 C27.7835273,35.6788125 35.7380156,27.7243242 35.7380156,17.9473359 C35.7380156,8.17034766 27.7835625,0.215859375 18.0065391,0.215859375 Z M27.9284766,14.5476563 L16.397543,26.3685938 C16.1215266,26.6508093 15.7440719,26.810863 15.3493242,26.8130742 L15.3413438,26.8130742 C14.9494894,26.8130742 14.5737163,26.6572502 14.2966406,26.3801602 L8.09613281,20.1810586 C7.51883203,19.6046367 7.51883203,18.6688477 8.09613281,18.0917227 C8.67329297,17.5143867 9.60834375,17.5143867 10.1854688,18.0917227 L15.3298125,23.2344141 L25.8160781,12.4813125 C26.3874727,11.8984219 27.3239648,11.8874531 27.9054141,12.45825 C28.4890781,13.0289414 28.4993086,13.9646953 27.9284766,14.5476211 L27.9284766,14.5476563 Z" id="形状" fill="url(#linearGradient-1)"></path>
            </g>
        </g>
    </g>
</svg>