<?xml version="1.0" encoding="UTF-8"?>
<svg width="74px" height="74px" viewBox="0 0 74 74" version="1.1" xmlns="http://www.w3.org/2000/svg" xmlns:xlink="http://www.w3.org/1999/xlink">
    <title> </title>
    <defs>
        <polygon id="path-1" points="0 0 48.8881332 0 48.8881332 55.5482777 0 55.5482777"></polygon>
        <linearGradient x1="50%" y1="0%" x2="50%" y2="100%" id="linearGradient-3">
            <stop stop-color="#FF8076" offset="0%"></stop>
            <stop stop-color="#FF798A" offset="100%"></stop>
        </linearGradient>
        <polygon id="path-4" points="0 0 33.3497025 0 33.3497025 33.3445667 0 33.3445667"></polygon>
        <linearGradient x1="50%" y1="0%" x2="50%" y2="100%" id="linearGradient-6">
            <stop stop-color="#FF8076" offset="0%"></stop>
            <stop stop-color="#FF777D" offset="100%"></stop>
        </linearGradient>
    </defs>
    <g id="餐饮预订商家版" stroke="none" stroke-width="1" fill="none" fill-rule="evenodd">
        <g id="首页" transform="translate(-248.000000, -747.000000)">
            <rect fill="#FAFAFA" x="0" y="0" width="750" height="1895"></rect>
            <rect id="矩形备份-11" fill="#FFFFFF" x="18" y="593" width="700" height="290" rx="10"></rect>
            <g id="编组-14" transform="translate(248.000000, 747.000000)">
                <rect id="矩形备份-3" x="0" y="0" width="74" height="74"></rect>
                <g id="编组-13" transform="translate(6.000000, 3.000000)">
                    <g id="编组" transform="translate(0.000000, 9.000000)">
                        <g>
                            <mask id="mask-2" fill="white">
                                <use xlink:href="#path-1"></use>
                            </mask>
                            <g id="Clip-2"></g>
                            <path d="M15.5561334,39.9932271 L11.1124669,39.9932271 C9.88828324,39.9992 8.89213382,39.009195 8.88912655,37.7881889 L8.88912655,37.7731889 C8.88613292,36.5491827 9.87328099,35.5561778 11.0974646,35.5531506 L11.1124669,35.5531506 L15.5561334,35.5531506 C16.780317,35.5471777 17.773466,36.5371827 17.7764936,37.7581888 L17.7764936,37.7731889 C17.7824674,38.997195 16.7923188,39.9902 15.5681352,39.9932271 L15.5561334,39.9932271 Z M11.1124669,22.2181111 L19.9998,22.2181111 C21.2329849,22.2181111 22.2231335,23.208116 22.2231335,24.4411222 C22.2231335,25.6741284 21.2329849,26.6641333 19.9998,26.6641333 L11.1124669,26.6641333 C9.87928189,26.6641333 8.88913337,25.6741284 8.88913337,24.4411222 C8.88913337,23.208116 9.87928189,22.2181111 11.1124669,22.2181111 L11.1124669,22.2181111 Z M11.1124669,8.88603763 L37.7774666,8.88603763 C39.0016502,8.88304442 39.9977997,9.87304937 40.0008069,11.0970555 L40.0008069,11.1090555 C40.0038006,12.3330617 39.0166525,13.3260666 37.7924689,13.3320735 L37.7774666,13.3320735 L11.1124669,13.3320735 C9.88828324,13.3350667 8.89213382,12.3480617 8.88912655,11.1210556 L8.88912655,11.1090555 C8.88613292,9.88504943 9.87328099,8.89204446 11.0974646,8.88603763 L11.1124669,8.88603763 Z M22.2231335,43.3262166 C22.2231335,31.6711584 31.6775516,22.2181111 43.3312997,22.2181111 C45.2605891,22.2181111 47.1178677,22.4791124 48.8881332,22.9651148 L48.8881332,4.44302222 C48.8881332,1.99500998 46.8928339,0 44.4444667,0 L4.44546682,0 C1.99709956,0 -0.00120018003,1.99500998 -0.00120018003,4.44302222 L-0.00120018003,51.1022555 C-0.00120018003,53.5532678 1.99709956,55.5482777 4.44546682,55.5482777 L26.1207181,55.5482777 C23.6633495,52.0922605 22.2231335,47.8832394 22.2231335,43.3262166 L22.2231335,43.3262166 Z" id="Fill-1" fill="url(#linearGradient-3)" mask="url(#mask-2)"></path>
                        </g>
                        <g transform="translate(26.650298, 26.655433)">
                            <mask id="mask-5" fill="white">
                                <use xlink:href="#path-4"></use>
                            </mask>
                            <g id="Clip-4"></g>
                            <path d="M24.0366055,21.8191091 C24.6426964,22.4251121 24.6426964,23.4151171 24.0366055,24.0301202 C23.7305596,24.3361217 23.3345002,24.4921225 22.9324399,24.4921225 C22.53338,24.4921225 22.1343201,24.3361217 21.8312747,24.0301202 L16.6825024,18.8820944 L11.5367305,24.0301202 C11.2306846,24.3361217 10.8346252,24.4921225 10.4325649,24.4921225 C10.033505,24.4921225 9.63444517,24.3361217 9.33139971,24.0301202 C8.72230835,23.4241171 8.72230835,22.4341122 9.33139971,21.8191091 L14.4771716,16.6710834 L9.33139971,11.5230576 C8.72230835,10.9170546 8.72230835,9.92704964 9.33139971,9.31204656 C9.94049107,8.70304352 10.9276391,8.70304352 11.5457319,9.31204656 L16.6915037,14.4600723 L21.840276,9.31204656 C22.4493674,8.70304352 23.4365155,8.70304352 24.0546082,9.31204656 C24.6606991,9.91804959 24.6606991,10.9080545 24.0546082,11.5230576 L18.9058359,16.6710834 L24.0366055,21.8191091 Z M16.6765015,0 C7.46511977,0 0,7.46403732 0,16.6710834 C0,25.8811294 7.46511977,33.3451667 16.6765015,33.3451667 C25.8848827,33.3451667 33.3500025,25.8811294 33.3500025,16.6710834 C33.3500025,7.46403732 25.8848827,0 16.6765015,0 L16.6765015,0 Z" id="Fill-3" fill="url(#linearGradient-6)" mask="url(#mask-5)"></path>
                        </g>
                    </g>
                </g>
            </g>
        </g>
    </g>
</svg>