<?xml version="1.0" encoding="UTF-8"?>
<svg width="36px" height="36px" viewBox="0 0 36 36" version="1.1" xmlns="http://www.w3.org/2000/svg" xmlns:xlink="http://www.w3.org/1999/xlink">
    <title>首页备份</title>
    <defs>
        <linearGradient x1="50%" y1="0%" x2="50%" y2="100%" id="linearGradient-1">
            <stop stop-color="#FF7E4E" offset="0%"></stop>
            <stop stop-color="#FD480A" offset="100%"></stop>
        </linearGradient>
    </defs>
    <g id="餐饮预订商家版" stroke="none" stroke-width="1" fill="none" fill-rule="evenodd">
        <g id="首页备份" transform="translate(-55.000000, -492.000000)">
            <rect fill="#FAFAFA" x="0" y="0" width="750" height="1895"></rect>
            <path d="M25,455 L725,455 L725,542 C725,547.522847 720.522847,552 715,552 L35,552 C29.4771525,552 25,547.522847 25,542 L25,455 L25,455 Z" id="矩形" fill="#FFFFFF"></path>
            <g id="编组-16" transform="translate(55.000000, 492.000000)" fill-rule="nonzero">
                <rect id="矩形" fill="#000000" opacity="0" x="0" y="0" width="36" height="36"></rect>
                <path d="M17.9799331,0 C20.4682274,0 22.8093645,0.474916388 25.0033445,1.42474916 C27.1973244,2.37458194 29.1036789,3.65886288 30.722408,5.27759197 C32.3411371,6.89632107 33.6254181,8.79598662 34.5752508,10.9765886 C35.5250836,13.1571906 36,15.4916388 36,17.9799331 C36,20.4682274 35.5250836,22.8093645 34.5752508,25.0033445 C33.6254181,27.1973244 32.3411371,29.1036789 30.722408,30.722408 C29.1036789,32.3411371 27.1973244,33.6254181 25.0033445,34.5752508 C22.8093645,35.5250836 20.4682274,36 17.9799331,36 C15.4916388,36 13.1571906,35.5250836 10.9765886,34.5752508 C8.79598662,33.6254181 6.89632107,32.3411371 5.27759197,30.722408 C3.65886288,29.1036789 2.37458194,27.1973244 1.42474916,25.0033445 C0.474916388,22.8093645 0,20.4682274 0,17.9799331 C0,15.4916388 0.474916388,13.1571906 1.42474916,10.9765886 C2.37458194,8.79598662 3.65886288,6.89632107 5.27759197,5.27759197 C6.89632107,3.65886288 8.79598662,2.37458194 10.9765886,1.42474916 C13.1571906,0.474916388 15.4916388,0 17.9799331,0 L17.9799331,0 Z M26.9297659,20.4280936 C27.7324415,20.4280936 28.4548495,20.2207358 29.09699,19.8060201 C29.7391304,19.3913043 30.0602007,18.7692308 30.0602007,17.9397993 C30.0602007,17.1371237 29.7391304,16.541806 29.09699,16.1538462 C28.4548495,15.7658863 27.7324415,15.5719064 26.9297659,15.5719064 L9.19063545,15.5719064 C8.38795987,15.5719064 7.65217391,15.7658863 6.98327759,16.1538462 C6.31438127,16.541806 5.97993311,17.1371237 5.97993311,17.9397993 C5.97993311,18.7692308 6.31438127,19.3913043 6.98327759,19.8060201 C7.65217391,20.2207358 8.38795987,20.4280936 9.19063545,20.4280936 L26.9297659,20.4280936 L26.9297659,20.4280936 Z" id="形状" fill="url(#linearGradient-1)"></path>
            </g>
        </g>
    </g>
</svg>