<svg xmlns="http://www.w3.org/2000/svg" xmlns:xlink="http://www.w3.org/1999/xlink" fill="none" version="1.1" width="35.53717041015625" height="33.75390625" viewBox="0 0 35.53717041015625 33.75390625"><defs><linearGradient x1="0.31569844484329224" y1="0.10948464274406433" x2="0.6414580345153809" y2="0.9423520565032959" id="master_svg0_308_66549"><stop offset="0%" stop-color="#E4D4FE" stop-opacity="1"/><stop offset="100%" stop-color="#BB93FC" stop-opacity="1"/></linearGradient><linearGradient x1="0.5" y1="0" x2="0.5" y2="0.9970225095748901" id="master_svg1_308_66747"><stop offset="0%" stop-color="#FFF3C3" stop-opacity="1"/><stop offset="100%" stop-color="#F3C96A" stop-opacity="1"/></linearGradient></defs><g><g><path d="M35.4146220703125,16.0661Q35.4672220703125,15.9227,35.4974220703125,15.7731Q35.5277220703125,15.6234,35.5349220703125,15.4709Q35.5420220703125,15.3184,35.5260220703125,15.1666Q35.5099220703125,15.0148,35.4710220703125,14.8672Q35.4321220703125,14.7195,35.3712220703125,14.5795Q35.3103220703125,14.4395,35.2289220703125,14.3103Q35.1475220703125,14.1812,35.0474220703125,14.0659Q34.9473220703125,13.9506,34.8309220703125,13.8518L19.0624220703125,0.474581Q18.9953220703125,0.417653,18.9234220703125,0.366839Q18.8516220703125,0.316024,18.7755220703125,0.271717Q18.6995220703125,0.227409,18.6199220703125,0.18995Q18.5403220703125,0.152491,18.4576220703125,0.12217Q18.3750220703125,0.0918492,18.2901220703125,0.0689012Q18.2051220703125,0.0459532,18.1185220703125,0.0305553Q18.0318220703125,0.0151574,17.9442220703125,0.00742862Q17.8565220703125,-0.000300194,17.7685220703125,-0.000300194Q17.6805220703125,-0.000300194,17.5929220703125,0.00742862Q17.5052220703125,0.0151574,17.4186220703125,0.0305553Q17.3319220703125,0.0459532,17.2470220703125,0.0689012Q17.1620220703125,0.0918492,17.0794220703125,0.12217Q16.9968220703125,0.152491,16.9172220703125,0.18995Q16.8376220703125,0.227409,16.7615220703125,0.271717Q16.6855220703125,0.316024,16.6136220703125,0.366839Q16.5418220703125,0.417653,16.4747220703125,0.474581L0.7061900703125,13.8518Q0.5897670703125,13.9506,0.4896850703125,14.0659Q0.3896030703125,14.1812,0.3081810703125,14.3103Q0.2267590703125,14.4395,0.1658840703125,14.5795Q0.1050100703125,14.7195,0.0660927703125,14.8672Q0.0271758703125,15.0148,0.0111187703125,15.1666Q-0.0049383996875,15.3184,0.0022363203125,15.4709Q0.0094110403125,15.6234,0.0396513703125,15.7731Q0.0698916703125,15.9227,0.1224970703125,16.0661Q0.1751020703125,16.2094,0.2488530703125,16.3431Q0.3226030703125,16.4768,0.4157910703125,16.5977Q0.5089780703125,16.7186,0.6194420703125,16.824Q0.7299070703125,16.9294,0.8550880703125,17.0168Q0.9802700703125,17.1042,1.1172720703125,17.1716Q1.2542620703125,17.239,1.3999020703125,17.2848Q1.5455420703125,17.3306,1.6964520703125,17.3538Q1.8473520703125,17.377,2.0000220703125002,17.377L3.2685520703125,17.377L3.2685520703125,29.377Q3.2685520703125,29.5735,3.2878120703125,29.769Q3.3070720703125,29.9646,3.3454120703125,30.1573Q3.3837520703125,30.35,3.4407920703125,30.5381Q3.4978320703125,30.7261,3.5730320703125,30.9077Q3.6482320703125,31.0892,3.7408720703125,31.2625Q3.8335020703125,31.4358,3.9426720703125,31.5992Q4.0518520703125,31.7626,4.1765120703125,31.9145Q4.3011720703125,32.0664,4.4401220703125,32.2054Q4.5790820703125,32.3443,4.7309820703125,32.469Q4.8828820703125,32.5937,5.0462720703125,32.7028Q5.2096620703125,32.812,5.3829620703125,32.9046Q5.5562720703125,32.9973,5.7378220703125,33.0725Q5.9193720703125,33.1477,6.1074120703125,33.2047Q6.2954620703125,33.2618,6.4881920703125,33.3001Q6.6809220703125,33.3384,6.8764820703125,33.3577Q7.0720520703125,33.377,7.2685520703125,33.377L27.2685220703125,33.377Q27.4650220703125,33.377,27.6606220703125,33.3577Q27.8562220703125,33.3384,28.0489220703125,33.3001Q28.2416220703125,33.2618,28.4297220703125,33.2047Q28.6177220703125,33.1477,28.7993220703125,33.0725Q28.9808220703125,32.9973,29.1541220703125,32.9046Q29.3274220703125,32.812,29.4908220703125,32.7028Q29.6542220703125,32.5937,29.8061220703125,32.469Q29.9580220703125,32.3443,30.0970220703125,32.2054Q30.2359220703125,32.0664,30.3606220703125,31.9145Q30.4852220703125,31.7626,30.5944220703125,31.5992Q30.7036220703125,31.4358,30.7962220703125,31.2625Q30.8888220703125,31.0892,30.9640220703125,30.9077Q31.0393220703125,30.7261,31.0963220703125,30.5381Q31.1533220703125,30.35,31.1917220703125,30.1573Q31.2300220703125,29.9646,31.2493220703125,29.769Q31.2685220703125,29.5735,31.2685220703125,29.377L31.2685220703125,17.377L33.5371220703125,17.377Q33.6897220703125,17.377,33.8406220703125,17.3538Q33.9915220703125,17.3306,34.1372220703125,17.2848Q34.2828220703125,17.239,34.4198220703125,17.1716Q34.5568220703125,17.1042,34.6820220703125,17.0168Q34.8072220703125,16.9294,34.9176220703125,16.824Q35.0281220703125,16.7186,35.1213220703125,16.5977Q35.2145220703125,16.4768,35.2882220703125,16.3431Q35.3620220703125,16.2094,35.4146220703125,16.0661Z" fill-rule="evenodd" fill="url(#master_svg0_308_66549)" fill-opacity="1"/></g><g><g><path d="M19.541014687500002,21.122963428497314L19.541014687500002,22.378013428497315Q19.541014687500002,22.427253428497316,19.550624687499997,22.475553428497314Q19.5602246875,22.523853428497315,19.5790746875,22.569353428497315Q19.5979146875,22.614843428497316,19.6252846875,22.655793428497315Q19.6526346875,22.696743428497314,19.6874646875,22.731563428497314Q19.7222846875,22.766383428497313,19.7632246875,22.793743428497315Q19.8041746875,22.821103428497313,19.8496746875,22.839943428497314Q19.895174687500003,22.858793428497314,19.9434746875,22.868403428497313Q19.991774687499998,22.878013428497315,20.041014687500002,22.878013428497315L20.2228346875,22.878013428497315Q20.2720746875,22.878013428497315,20.3203746875,22.868403428497313Q20.3686746875,22.858793428497314,20.4141746875,22.839943428497314Q20.459674687499998,22.821103428497313,20.5006146875,22.793743428497315Q20.5415646875,22.766383428497313,20.5763846875,22.731563428497314Q20.6112046875,22.696743428497314,20.6385646875,22.655793428497315Q20.665924687500002,22.614843428497316,20.6847746875,22.569353428497315Q20.7036146875,22.523853428497315,20.713224687500002,22.475553428497314Q20.7228346875,22.427253428497316,20.7228346875,22.378013428497315L20.7228346875,21.122963428497314L22.2685546875,21.122963428497314Q22.366854687500002,21.122963428497314,22.464554687499998,21.132593978497315Q22.562354687499997,21.142224528497316,22.6587546875,21.161392828497313Q22.7550546875,21.180561228497314,22.8491546875,21.209082728497314Q22.943154687499998,21.237604428497313,23.0339546875,21.275204428497315Q23.124654687499998,21.312804428497316,23.2113546875,21.359120428497313Q23.297954687500003,21.405437428497315,23.3796546875,21.460024428497313Q23.4613546875,21.514611428497314,23.5373546875,21.576942428497315Q23.6132546875,21.639274428497316,23.6827546875,21.708749428497313Q23.7522546875,21.778225428497315,23.8145546875,21.854176428497315Q23.8769546875,21.930128428497316,23.9314546875,22.011823428497316Q23.9860546875,22.093518428497315,24.0323546875,22.180173428497316Q24.078754687500002,22.266823428497315,24.1163546875,22.357593428497314Q24.1539546875,22.448373428497316,24.182454687499998,22.542393428497313Q24.2109546875,22.636413428497313,24.2301546875,22.732783428497314Q24.2492546875,22.829153428497314,24.2589546875,22.926933428497314Q24.2685546875,23.024713428497314,24.2685546875,23.122963428497314L24.2685546875,31.376963428497312Q24.2685546875,31.475163428497314,24.2589546875,31.572963428497314Q24.2492546875,31.670763428497317,24.2301546875,31.767163428497312Q24.2109546875,31.863463428497315,24.182454687499998,31.957563428497316Q24.1539546875,32.05156342849732,24.1163546875,32.142263428497316Q24.078754687500002,32.23306342849732,24.0323546875,32.31976342849731Q23.9860546875,32.406363428497315,23.9314546875,32.48806342849731Q23.8769546875,32.56976342849731,23.8145546875,32.64576342849732Q23.7522546875,32.721663428497315,23.6827546875,32.79116342849731Q23.6132546875,32.86066342849732,23.5373546875,32.92296342849731Q23.4613546875,32.98526342849731,23.3796546875,33.03986342849731Q23.297954687500003,33.09446342849731,23.2113546875,33.140763428497316Q23.124654687499998,33.18706342849731,23.0339546875,33.224663428497315Q22.943154687499998,33.26226342849731,22.8491546875,33.29086342849732Q22.7550546875,33.31936342849731,22.6587546875,33.33856342849732Q22.562354687499997,33.35766342849732,22.464554687499998,33.36736342849731Q22.366854687500002,33.37696342849731,22.2685546875,33.37696342849731L13.2685546875,33.37696342849731Q13.1703046875,33.37696342849731,13.0725246875,33.36736342849731Q12.9747446875,33.35766342849732,12.8783746875,33.33856342849732Q12.7820046875,33.31936342849731,12.6879846875,33.29086342849732Q12.5939646875,33.26226342849731,12.5031846875,33.224663428497315Q12.4124146875,33.18706342849731,12.3257646875,33.140763428497316Q12.2391096875,33.09446342849731,12.1574146875,33.03986342849731Q12.0757196875,32.98526342849731,11.9997686875,32.92296342849731Q11.9238166875,32.86066342849732,11.8543406875,32.79116342849731Q11.7848656875,32.721663428497315,11.7225336875,32.64576342849732Q11.6602026875,32.56976342849731,11.6056156875,32.48806342849731Q11.5510286875,32.406363428497315,11.5047116875,32.31976342849731Q11.4583956875,32.23306342849732,11.4207956875,32.142263428497316Q11.3831956875,32.05156342849732,11.3546739875,31.957563428497316Q11.3261524875,31.863463428497315,11.3069840875,31.767163428497312Q11.2878157875,31.670763428497317,11.2781852375,31.572963428497314Q11.2685546875,31.475163428497314,11.2685546875,31.376963428497312L11.2685546875,23.122963428497314Q11.2685546875,23.024713428497314,11.2781852375,22.926933428497314Q11.2878157875,22.829153428497314,11.3069840875,22.732783428497314Q11.3261524875,22.636413428497313,11.3546739875,22.542393428497313Q11.3831956875,22.448373428497316,11.4207956875,22.357593428497314Q11.4583956875,22.266823428497315,11.5047116875,22.180173428497316Q11.5510286875,22.093518428497315,11.6056156875,22.011823428497316Q11.6602026875,21.930128428497316,11.7225336875,21.854177428497316Q11.7848656875,21.778225428497315,11.8543406875,21.708749428497313Q11.9238166875,21.639274428497316,11.9997676875,21.576942428497315Q12.0757196875,21.514611428497314,12.1574146875,21.460024428497313Q12.2391096875,21.405437428497315,12.3257646875,21.359120428497313Q12.4124146875,21.312804428497316,12.5031846875,21.275204428497315Q12.5939646875,21.237604428497313,12.6879846875,21.209082728497314Q12.7820046875,21.180561228497314,12.8783746875,21.161392828497313Q12.9747446875,21.142224528497316,13.0725246875,21.132593978497315Q13.1703046875,21.122963428497314,13.2685546875,21.122963428497314L14.8137246875,21.122963428497314L14.8137246875,22.378013428497315Q14.8137246875,22.427253428497316,14.8233246875,22.475553428497314Q14.8329346875,22.523853428497315,14.8517846875,22.569353428497315Q14.8706246875,22.614843428497316,14.8979846875,22.655793428497315Q14.9253446875,22.696743428497314,14.9601646875,22.731563428497314Q14.9949846875,22.766383428497313,15.0359346875,22.793743428497315Q15.0768846875,22.821103428497313,15.122374687499999,22.839943428497314Q15.1678746875,22.858793428497314,15.2161746875,22.868403428497313Q15.2644746875,22.878013428497315,15.313724687499999,22.878013428497315L15.495534687500001,22.878013428497315Q15.5447846875,22.878013428497315,15.5930846875,22.868403428497313Q15.6413846875,22.858793428497314,15.686884687500001,22.839943428497314Q15.7323746875,22.821103428497313,15.7733246875,22.793743428497315Q15.8142746875,22.766383428497313,15.8490946875,22.731563428497314Q15.883914687499999,22.696743428497314,15.9112746875,22.655793428497315Q15.938634687499999,22.614843428497316,15.9574746875,22.569353428497315Q15.9763246875,22.523853428497315,15.9859346875,22.475553428497314Q15.995534687500001,22.427253428497316,15.995534687500001,22.378013428497315L15.995534687500001,21.122963428497314L19.541014687500002,21.122963428497314Z" fill-rule="evenodd" fill="url(#master_svg1_308_66747)" fill-opacity="1"/></g><g><rect x="14.813721656799316" y="19.376953125" width="1.1818186044692993" height="3.5011391639709473" rx="0.5000000596046448" fill="#FEEFDF" fill-opacity="1"/></g><g><rect x="19.540995597839355" y="19.376953125" width="1.1818186044692993" height="3.5011391639709473" rx="0.5000000596046448" fill="#FEEFDF" fill-opacity="1"/></g><g><rect x="13.041282415390015" y="24.619543075561523" width="7.090910911560059" height="1.1670461893081665" rx="0.5000000596046448" fill="#FFFFFF" fill-opacity="1"/></g><g><rect x="13.041282415390015" y="27.564510345458984" width="9.454548835754395" height="1.1670461893081665" rx="0.5000000596046448" fill="#FFFFFF" fill-opacity="1"/></g></g><g><path d="M31.2685546875,28.439033125Q30.6565546875,28.082413125,29.9603546875,27.759673125Q29.2641546875,27.436943125,28.4926546875,27.152223125Q27.7211546875,26.867503125,26.8842546875,26.624443125Q26.0473546875,26.381383125,25.1557546875,26.183088125Q24.2641546875,25.984797125,23.3292546875,25.833815125Q22.3943546875,25.682833125,21.4280546875,25.581091125Q20.4618546875,25.479350125,19.4766546875,25.428151525Q18.4915546875,25.376953125,17.4999546875,25.376953125Q16.9804546875,25.376953125,16.4619546875,25.391040825Q15.9433546875,25.405128625,15.4274546875,25.433254425Q14.9116546875,25.461380225,14.4003546875,25.503445125Q13.8890546875,25.545510125,13.3840546875,25.601366125Q12.8791746875,25.657222125,12.3823746875,25.726672125Q11.8855846875,25.796122125,11.3986746875,25.878921125Q10.9117646875,25.961721125,10.4364546875,26.057578125Q9.961154687499999,26.153436125,9.4991146875,26.262014125Q9.0370846875,26.370592125,8.5899646875,26.491503125Q8.142834687499999,26.612423125,7.7121846875,26.745253125Q7.2815346875,26.878083125,6.8688746875,27.022353125Q6.4562146875,27.166623125,6.0630146875,27.321833125Q5.6698046875,27.477043125,5.2974246874999995,27.642643125Q4.9250546875,27.808233125,4.5748246875,27.983643125Q4.2245876875,28.159043125,3.8977336875,28.343643125Q3.5708796875,28.528233125,3.2685546875000004,28.721363125L3.2685546875,29.753903125Q3.2685546875,29.950413125,3.2878157875,30.145973125Q3.3070768875,30.341533124999998,3.3454135875,30.534263125Q3.3837506875,30.727003125,3.4407936875,30.915043125Q3.4978366875,31.103093125,3.5730366875,31.284643125Q3.6482366875,31.466193125,3.7408696875,31.639493125Q3.8335026875000002,31.812793125,3.9426756875,31.976183125Q4.0518496875,32.139573125,4.1765126875,32.291483125Q4.3011746875,32.443383125,4.4401246875,32.582333125Q4.5790746875,32.721283125,4.7309846874999995,32.845943125Q4.8828846875,32.970613125,5.0462746875,33.079783125Q5.2096646875,33.188963125,5.3829646874999995,33.281593125Q5.5562746875,33.374223125,5.7378246875,33.449423124999996Q5.9193746874999995,33.524623125,6.1074146875,33.581663125Q6.2954646875,33.638713125,6.4881946875,33.677043125Q6.6809246875,33.715383125,6.8764846875,33.734643125Q7.0720446875,33.753903125,7.2685546875,33.753903125L27.2685546875,33.753903125Q27.4650546875,33.753903125,27.6606546875,33.734643125Q27.8561546875,33.715383125,28.0489546875,33.677043125Q28.2416546875,33.638713125,28.4296546875,33.581663125Q28.6177546875,33.524623125,28.7992546875,33.449423124999996Q28.9808546875,33.374223125,29.1541546875,33.281593125Q29.3274546875,33.188963125,29.4908546875,33.079783125Q29.6542546875,32.970613125,29.8061546875,32.845943125Q29.9580546875,32.721283125,30.0969546875,32.582333125Q30.2359546875,32.443383125,30.3605546875,32.291483125Q30.4852546875,32.139573125,30.5944546875,31.976183125Q30.7036546875,31.812793125,30.7962546875,31.639493125Q30.8888546875,31.466193125,30.9640546875,31.284643125Q31.0392546875,31.103093125,31.0963546875,30.915043125Q31.1533546875,30.727003125,31.1916546875,30.534263125Q31.2300546875,30.341533124999998,31.2492546875,30.145973125Q31.2685546875,29.950413125,31.2685546875,29.753903125L31.2685546875,28.439033125Z" fill-rule="evenodd" fill="#FFFFFF" fill-opacity="0.10000000149011612"/></g><g><rect x="13.2685546875" y="13.376953125" width="9" height="2" rx="1" fill="#EEE6FF" fill-opacity="1"/></g></g></svg>