<svg xmlns="http://www.w3.org/2000/svg" xmlns:xlink="http://www.w3.org/1999/xlink" fill="none" version="1.1" width="30" height="30" viewBox="0 0 30 30"><defs><linearGradient x1="0.5" y1="0" x2="0.5" y2="1" id="master_svg0_433_00393"><stop offset="0%" stop-color="#FFAA26" stop-opacity="1"/><stop offset="100%" stop-color="#FF911B" stop-opacity="1"/></linearGradient></defs><g><g><ellipse cx="15" cy="15" rx="15" ry="15" fill="url(#master_svg0_433_00393)" fill-opacity="1"/></g><g><g><path d="M15.30507,9.50089C18.0345,9.49971,20.5028,11.08591,21.582700000000003,13.53515C21.752000000000002,13.91145,22.2004,14.08372,22.5867,13.92087C22.9729,13.75802,23.1523,13.321100000000001,22.9883,12.94258C21.4771,9.51169,17.7777,7.518344,14.00165,8.100356C10.22559,8.682369,7.33385,11.69162,6.977017,15.410440000000001C6.410376,15.51485,6,15.99832,6,16.56148L6,17.49417C6.00000765638,18.1411,6.536758,18.665599999999998,7.19887,18.665599999999998L7.3536,18.665599999999998C8.01572,18.665599999999998,8.55248,18.1411,8.55247,17.49417L8.55247,16.56148C8.55255,16.41722,8.525269999999999,16.2742,8.47202,16.13965C8.49315,12.475480000000001,11.55007,9.50089,15.30507,9.50089Z" fill="#FFFFFF" fill-opacity="1"/></g><g><path d="M21.203979026794435,15.749404176254274C21.109779026794435,15.069414176254273,20.923579026794435,14.427424176254274,20.735179026794434,13.897394176254272C19.824379026794432,11.835394176254272,17.730289026794434,10.391389696254272,15.284239026794435,10.387384176254272C12.002999026794434,10.387384176254272,9.341979026794434,12.987414176254273,9.341979026794434,16.193414176254272C9.341979026794434,19.267424176254274,11.788049026794434,21.777484176254273,14.880969026794434,21.979484176254275C14.878349026794433,21.986484176254272,14.874939026794433,21.993184176254275,14.870799026794433,21.99948417625427C14.997649026794434,22.001384176254273,15.118479026794434,21.997384176254272,15.241239026794434,21.997384176254272C15.255579026794432,21.997384176254272,15.269859026794434,21.99948417625427,15.284239026794435,21.99948417625427C15.302599026794432,21.99948417625427,15.321069026794433,21.997384176254272,15.339509026794435,21.997384176254272C21.635879026794434,21.89738417625427,23.709379026794434,17.539364176254274,23.999979026794435,16.847384176254273C22.831279026794434,17.595424176254273,21.412679026794436,17.225424176254272,21.203979026794435,15.749404176254274ZM13.399409026794434,17.365744176254275L12.180589026794433,17.365744176254275L12.180589026794433,15.209304176254273L13.399409026794434,15.209304176254273L13.399409026794434,17.365744176254275ZM17.649269026794435,17.365744176254275L16.430449026794435,17.365744176254275L16.430449026794435,15.209304176254273L17.649269026794435,15.209304176254273L17.649269026794435,17.365744176254275Z" fill="#FFFFFF" fill-opacity="1"/></g></g></g></svg>