<svg xmlns="http://www.w3.org/2000/svg" xmlns:xlink="http://www.w3.org/1999/xlink" fill="none" version="1.1" width="30" height="30" viewBox="0 0 30 30"><defs><linearGradient x1="0.5" y1="0" x2="0.5" y2="1" id="master_svg0_433_00345"><stop offset="0%" stop-color="#92B7F3" stop-opacity="1"/><stop offset="100%" stop-color="#5A94F3" stop-opacity="1"/></linearGradient></defs><g><g><ellipse cx="15" cy="15" rx="15" ry="15" fill="url(#master_svg0_433_00345)" fill-opacity="1"/></g><g><path d="M15.5,24C10.80573,24,7,20.1943,7,15.5C7,10.80573,10.80573,7,15.5,7C20.1943,7,24,10.80573,24,15.5C24,20.1943,20.1943,24,15.5,24ZM14.45393,14.93333L14.45393,19.1182C14.45393,19.6477,14.8832,20.076999999999998,15.41273,20.076999999999998C15.94226,20.076999999999998,16.37153,19.6477,16.37153,19.1182L16.37153,14.93333C16.37153,14.4038,15.94226,13.97453,15.41273,13.97453C14.8832,13.97453,14.45393,14.4038,14.45393,14.93333ZM15.40593,10.92303C15.14527,10.92303,14.9237,11.003499999999999,14.74067,11.19107C14.545169999999999,11.3656,14.45393,11.593399999999999,14.45393,11.8756C14.45393,12.14363,14.545169999999999,12.37143,14.74067,12.55957C14.9237,12.74713,15.14527,12.8412,15.4065,12.8412C15.66249,12.84159,15.90926,12.745709999999999,16.097830000000002,12.572600000000001C16.2803,12.38503,16.37153,12.15723,16.37153,11.8756C16.37153,11.593969999999999,16.28087,11.3656,16.097830000000002,11.19107C15.91537,11.004069999999999,15.6802,10.92303,15.4065,10.92303L15.40593,10.92303Z" fill="#FFFFFF" fill-opacity="1"/></g></g></svg>