<svg xmlns="http://www.w3.org/2000/svg" xmlns:xlink="http://www.w3.org/1999/xlink" fill="none" version="1.1" width="14" height="12" viewBox="0 0 14 12"><defs><linearGradient x1="0.06863872706890106" y1="0" x2="0.8805142641067505" y2="1.045654296875" id="master_svg0_308_63010"><stop offset="0%" stop-color="#966737" stop-opacity="1"/><stop offset="56.8493127822876%" stop-color="#E0CBB0" stop-opacity="1"/><stop offset="100%" stop-color="#F0E6CE" stop-opacity="1"/></linearGradient><linearGradient x1="0.06863872706890106" y1="0" x2="0.8805142641067505" y2="1.045654296875" id="master_svg1_308_63010"><stop offset="0%" stop-color="#966737" stop-opacity="1"/><stop offset="56.8493127822876%" stop-color="#E0CBB0" stop-opacity="1"/><stop offset="100%" stop-color="#F0E6CE" stop-opacity="1"/></linearGradient><linearGradient x1="0.06863872706890106" y1="0" x2="0.8805142641067505" y2="1.045654296875" id="master_svg2_308_63010"><stop offset="0%" stop-color="#966737" stop-opacity="1"/><stop offset="56.8493127822876%" stop-color="#E0CBB0" stop-opacity="1"/><stop offset="100%" stop-color="#F0E6CE" stop-opacity="1"/></linearGradient><linearGradient x1="0.06863872706890106" y1="0" x2="0.8805142641067505" y2="1.045654296875" id="master_svg3_308_63010"><stop offset="0%" stop-color="#966737" stop-opacity="1"/><stop offset="56.8493127822876%" stop-color="#E0CBB0" stop-opacity="1"/><stop offset="100%" stop-color="#F0E6CE" stop-opacity="1"/></linearGradient><linearGradient x1="0.06863872706890106" y1="0" x2="0.8805142641067505" y2="1.045654296875" id="master_svg4_308_63010"><stop offset="0%" stop-color="#966737" stop-opacity="1"/><stop offset="56.8493127822876%" stop-color="#E0CBB0" stop-opacity="1"/><stop offset="100%" stop-color="#F0E6CE" stop-opacity="1"/></linearGradient></defs><g><g><path d="M12.55702313194275,8.0152466C12.296023131942748,7.9494221,12.03092313194275,8.102883,11.96392313194275,8.357107L11.572423131942749,9.841429999999999C11.570123131942749,9.8501,11.568123131942748,9.85891,11.566323131942749,9.86773C11.455923131942749,10.41295,11.094723131942748,11.04957,10.439733131942749,11.04957L3.560183131942749,11.04957C2.905163131942749,11.04957,2.543943131942749,10.41295,2.433633131942749,9.86773C2.431813131942749,9.85891,2.429753131942749,9.8501,2.427443131942749,9.84135L2.036101131942749,8.357419C1.969171131942749,8.103335,1.7040751319427492,7.9502796,1.4428471319427492,8.0156364C1.1822591319427491,8.0809932,1.0253337319427491,8.340019,1.092423031942749,8.594259L1.480444131942749,10.06568C1.680673131942749,11.03086,2.399373131942749,12,3.560183131942749,12L10.439743131942748,12C11.600523131942749,12,12.31922313194275,11.0308,12.51952313194275,10.06568L12.90762313194275,8.593807C12.97462313194275,8.33963,12.81772313194275,8.0806034,12.55702313194275,8.0152466Z" fill="url(#master_svg0_308_63010)" fill-opacity="1"/></g><g><path d="M13.9879,4.04772C13.9386,3.57284,13.6233,3.20873,13.1389,3.07049C12.7849,2.96986,12.4105,3.02571,12.0842,3.2281C11.4746,3.60748,10.8649,3.98575,10.2547,4.364L8.71579,2.77424C8.84431,2.55904,8.92583,2.32142,8.95567,2.07135C9.02068,1.52631,8.83018,0.986253,8.43297,0.589668C8.05433,0.211852,7.54283,0.00246251,6.98996,0C6.43884,0.000375389,5.92677,0.204854,5.54815,0.575658C5.14555,0.969706,4.94949,1.50946,5.01029,2.05674C5.03871,2.31157,5.12087,2.55396,5.25184,2.77333L3.72454,4.35118C3.12143,3.97723,2.51848,3.60322,1.91522,3.22771C1.58936,3.02562,1.21519,2.9699,0.860525,3.07061C0.376636,3.20872,0.061346,3.57283,0.0121444,4.04769C0.00404813,4.09179,0,4.13611,0,4.17984C0,4.21828,0.00515218,4.25664,0.0153925,4.2938L0.799963,7.1563C0.856556,7.36286,1.05469,7.50007,1.27195,7.5C1.31211,7.5,1.35299,7.4953,1.39379,7.48548C1.65463,7.42254,1.81171,7.17307,1.74455,6.92822L0.982049,4.14631C0.982129,4.14586,0.982129,4.14548,0.982129,4.14512C0.992609,4.01558,1.05459,3.97193,1.14381,3.94645C1.21922,3.9253,1.29359,3.93916,1.3767,3.99085C1.99799,4.3776,2.61967,4.76324,3.24152,5.14873L3.53561,5.33108C3.73651,5.45563,4.00384,5.42396,4.16547,5.25696L6.23713,3.11672C6.40573,2.94248,6.40613,2.67671,6.23794,2.5021C6.09196,2.35058,6.00298,2.16362,5.98044,1.96166C5.94948,1.68277,6.04846,1.4085,6.2523,1.20902C6.44829,1.01706,6.70365,0.915531,6.98806,0.915305C7.2681,0.916567,7.52886,1.02361,7.7223,1.21662C7.92321,1.41722,8.01942,1.69164,7.98631,1.96956C7.9625,2.16912,7.87391,2.35327,7.73008,2.50202C7.56124,2.67655,7.56132,2.94286,7.73016,3.11731L9.80159,5.25717C9.90247,5.36138,10.0419,5.41152,10.1821,5.40676C10.2782,5.40899,10.3775,5.38492,10.4645,5.33108L10.7583,5.14881C11.3802,4.76324,12.0019,4.37762,12.6227,3.99123C12.7065,3.93931,12.7805,3.92509,12.8556,3.94632C12.9454,3.97195,13.0074,4.0156,13.0179,4.14514C13.0179,4.14551,13.0179,4.14589,13.018,4.14632L12.2555,6.92793C12.1884,7.17279,12.3455,7.42225,12.6063,7.48519C12.8674,7.54776,13.133,7.40057,13.2001,7.15603L13.9846,4.29389C13.9948,4.25666,14,4.21829,14,4.17985C14,4.13614,13.996,4.09182,13.9879,4.04772Z" fill="url(#master_svg1_308_63010)" fill-opacity="1"/></g><g><path d="M5.38461621295166,6.5C5.08726021295166,6.5,4.84615421295166,6.650481,4.84615421295166,6.836068L4.84615421295166,7.163932C4.84615421295166,7.349519,5.08724321295166,7.5,5.38461621295166,7.5C5.681971212951661,7.5,5.9230742129516605,7.349519,5.9230742129516605,7.163932L5.9230742129516605,6.836068C5.9230742129516605,6.650481,5.681971212951661,6.5,5.38461621295166,6.5Z" fill="url(#master_svg2_308_63010)" fill-opacity="1"/></g><g><path d="M8.615385370361327,6.5C8.318029370361328,6.5,8.076923370361328,6.650481,8.076923370361328,6.836068L8.076923370361328,7.163932C8.076923370361328,7.349519,8.318029370361328,7.5,8.615385370361327,7.5C8.912740370361329,7.5,9.153843370361328,7.349519,9.153843370361328,7.163932L9.153843370361328,6.836068C9.153843370361328,6.650481,8.912740370361329,6.5,8.615385370361327,6.5Z" fill="url(#master_svg3_308_63010)" fill-opacity="1"/></g><g><path d="M8.40294710647583,8.0512441C8.188157106475831,7.9546522,7.90319710647583,7.99861759,7.76593710647583,8.149421C7.76413710647583,8.151475,7.56841710647583,8.351373,7.264467106475831,8.351373C6.96908710647583,8.351373,6.78535610647583,8.16303,6.77320910647583,8.150155C6.63775410647583,8.000511542,6.35593810647583,7.9550032999999996,6.14085110647583,8.0488607C5.92456858647583,8.143399,5.8582180064758305,8.343403,5.99255300647583,8.495526C6.15811210647583,8.682858,6.61229410647583,9,7.264467106475831,9C7.91340710647583,9,8.37315710647583,8.685241,8.54252710647583,8.499282000000001C8.67985710647583,8.348425,8.61734710647583,8.147836,8.40294710647583,8.0512441Z" fill="url(#master_svg4_308_63010)" fill-opacity="1"/></g></g></svg>