<svg xmlns="http://www.w3.org/2000/svg" xmlns:xlink="http://www.w3.org/1999/xlink" fill="none" version="1.1" width="12" height="13" viewBox="0 0 12 13"><g><path d="M7.49561,13C7.21961,13,6.99721,12.7769,6.99721,12.5001L6.99721,5.00165C6.99721,4.87802,7.04276,4.75708,7.12582,4.6657L10.3788,1.00248L1.61125,1.00248L4.86962,4.66839C4.95001,4.75977,4.99556,4.87802,4.99556,5.00165L4.99556,9.51416L5.78871,10.1565C6.00308,10.3312,6.03523,10.6456,5.86374,10.8607C5.69225,11.0757,5.37606,11.1079,5.16169,10.9359L4.18365,10.1377C4.06574,10.0436,3.99875,9.89849,3.99875,9.74798L3.99875,5.18979L0.126762,0.833161C-0.00453715,0.685342,-0.0366921,0.475708,0.0436952,0.295638C0.124083,0.115568,0.303614,0,0.499224,0L11.5016,0C11.6999,0,11.8767,0.115568,11.9571,0.298325C12.0375,0.478396,12.0027,0.690717,11.8714,0.835849L7.99401,5.19247L7.99401,12.5001C7.99401,12.7769,7.7716,13,7.49561,13Z" fill="#575B66" fill-opacity="1"/></g></svg>