<svg xmlns="http://www.w3.org/2000/svg" xmlns:xlink="http://www.w3.org/1999/xlink" fill="none" version="1.1" width="30" height="30" viewBox="0 0 30 30"><defs><linearGradient x1="0.5" y1="0" x2="0.5" y2="1" id="master_svg0_341_01898"><stop offset="0%" stop-color="#4AD4FD" stop-opacity="1"/><stop offset="100%" stop-color="#41BAFF" stop-opacity="1"/></linearGradient></defs><g><g><ellipse cx="15" cy="15" rx="15" ry="15" fill="url(#master_svg0_341_01898)" fill-opacity="1"/></g><g><g><path d="M9.99989,8C8.895236,8.000494416,8,8.896009,8,10.00051L8,20.0013C8,21.1049,8.895205,22,9.99899,22L15.50093,22C15.77705,21.9998,16.000700000000002,21.7757,16.00045,21.4997C16.0002,21.223599999999998,15.77616,20.9999,15.500029999999999,21.0002L9.99899,21.0002C9.44755,21.0002,8.999944,20.552599999999998,8.999944,20.0004L8.999944,10.00051C8.999944,9.44825,9.44755,9.0007,9.99899,9.0007L15.50093,9.0007C15.76571,8.9851,15.97251,8.765976,15.97275,8.500774C15.97298,8.235571,15.76657,8.0160776,15.50182,8L9.99989,8Z" fill="#FFFFFF" fill-opacity="1"/></g><g><path d="M23.833533375549315,15.370906306037902L18.171333375549317,20.488146306037905C17.528573375549318,21.069946306037902,16.500873375549318,20.614346306037902,16.500873375549318,19.746946306037902L16.500873375549318,17.703496306037902C16.500383375549315,17.6342863060379,16.443873375549316,17.578586306037902,16.374653375549315,17.579076306037905L11.500258375549317,17.579076306037905C11.223739375549316,17.578096306037903,11.000238551549316,17.353416306037904,11.000734058537317,17.0769363060379L11.000734058537317,12.921956306037902C11.000734058537317,12.644486306037903,11.224535375549316,12.421606306037903,11.500258375549317,12.421606306037903L16.375543375549316,12.421606306037903C16.445113375549315,12.422106306037904,16.501773375549316,12.365856306037903,16.501773375549316,12.296296306037902L16.501773375549316,10.251926306037904C16.501773375549316,9.385484306037903,17.529463375549316,8.928097306037904,18.172223375549315,9.509901306037904L23.833533375549315,14.627986306037903C24.055533375549317,14.825886306037903,24.055533375549317,15.173006306037902,23.833533375549315,15.370906306037902Z" fill="#FFFFFF" fill-opacity="1"/></g></g></g></svg>