<svg xmlns="http://www.w3.org/2000/svg" xmlns:xlink="http://www.w3.org/1999/xlink" fill="none" version="1.1" width="35" height="34" viewBox="0 0 35 34"><defs><linearGradient x1="0.1559012234210968" y1="0.9488407373428345" x2="0.7459647059440613" y2="0.07579384744167328" id="master_svg0_308_63450"><stop offset="0%" stop-color="#71B7FF" stop-opacity="1"/><stop offset="100%" stop-color="#BDE4F9" stop-opacity="1"/></linearGradient><filter id="master_svg1_308_63515" filterUnits="objectBoundingBox" color-interpolation-filters="sRGB" x="-3" y="-1" width="22.999990463256836" height="17.999991416931152"><feFlood flood-opacity="0" result="BackgroundImageFix"/><feColorMatrix in="SourceAlpha" type="matrix" values="0 0 0 0 0 0 0 0 0 0 0 0 0 0 0 0 0 0 127 0"/><feOffset dy="1" dx="-1"/><feGaussianBlur stdDeviation="0.5"/><feColorMatrix type="matrix" values="0 0 0 0 0 0 0 0 0 0 0 0 0 0 0 0 0 0 0.10000000149011612 0"/><feBlend mode="normal" in2="BackgroundImageFix" result="effect1_dropShadow"/><feBlend mode="normal" in="SourceGraphic" in2="effect1_dropShadow" result="shape"/><feColorMatrix in="SourceAlpha" type="matrix" result="hardAlpha" values="0 0 0 0 0 0 0 0 0 0 0 0 0 0 0 0 0 0 127 0"/><feOffset dy="1" dx="0"/><feGaussianBlur stdDeviation="3"/><feComposite in2="hardAlpha" operator="arithmetic" k2="-1" k3="1"/><feColorMatrix type="matrix" values="0 0 0 0 1 0 0 0 0 1 0 0 0 0 1 0 0 0 1 0"/><feBlend mode="normal" in2="shape" result="effect2_innerShadow"/></filter></defs><g><g><rect x="7" y="0" width="20" height="14" rx="4" fill="#BAE8FF" fill-opacity="1"/></g><g><path d="M0.742671,26.3257C0.344618,30.4389,3.57769,34,7.71012,34L27.2899,34C31.4223,34,34.6554,30.4389,34.2573,26.3257L32.6122,9.32573C32.2649,5.73767,29.2495,3,25.6447,3L9.35528,3C5.75046,3,2.73506,5.73767,2.38783,9.32573L0.742671,26.3257Z" fill="url(#master_svg0_308_63450)" fill-opacity="1"/></g><g><g filter="url(#master_svg1_308_63515)"><path d="M8,25L8,21.28959L8.000219941,21.28959Q8.0604399,21.28959,8.12037,21.283459999999998Q8.1803,21.277340000000002,8.239363,21.265140000000002Q8.298426,21.252940000000002,8.356053,21.23479Q8.41368,21.216639999999998,8.469315,21.192709999999998Q8.524952,21.168779999999998,8.578061,21.139310000000002Q8.631170000000001,21.10984,8.681241,21.0751Q8.731311999999999,21.04036,8.777863,21.000700000000002Q8.824414,20.96103,8.866996,20.91682Q8.909578,20.87261,8.947780999999999,20.82428Q8.985984,20.77594,9.01944,20.723950000000002Q9.0529,20.67197,9.08128,20.61683Q9.10967,20.56168,9.132719999999999,20.50392Q9.15576,20.44615,9.17324,20.38632Q9.19072,20.32649,9.20247,20.26516Q9.214220000000001,20.20384,9.22012,20.14162Q9.22603,20.07939,9.22603,20.01687Q9.22603,19.954340000000002,9.22012,19.89212Q9.214220000000001,19.82989,9.20247,19.76857Q9.19072,19.707250000000002,9.17324,19.64741Q9.15576,19.58758,9.132719999999999,19.52981Q9.10967,19.47205,9.08128,19.41691Q9.0529,19.36177,9.01944,19.30978Q8.985984,19.25779,8.947780999999999,19.20946Q8.909577,19.16113,8.866995,19.11691Q8.824414,19.0727,8.777863,19.03304Q8.731311999999999,18.99337,8.681241,18.95863Q8.631170000000001,18.9239,8.578061,18.89442Q8.524951,18.86495,8.469315,18.84102Q8.41368,18.81709,8.356053,18.79894Q8.298426,18.78079,8.239363,18.7686Q8.1803,18.7564,8.12037,18.75027Q8.0604399,18.74414,8.000219941,18.74414L8,18.74414L8,15Q8,14.90175,8.00963055,14.80397Q8.0192611,14.70619,8.0384294,14.60982Q8.0575978,14.51345,8.0861193,14.41943Q8.114641,14.32541,8.152241,14.23463Q8.189841,14.14386,8.236157,14.05721Q8.282474,13.970555,8.337061,13.88886Q8.391648,13.807165,8.453979,13.731214Q8.516311,13.655262,8.585786,13.585786Q8.655262,13.516311,8.731213,13.453979Q8.807165,13.391648,8.88886,13.337061Q8.970555,13.282474,9.05721,13.236157Q9.14386,13.189841,9.23463,13.152241Q9.32541,13.114641,9.41943,13.0861193Q9.51345,13.0575978,9.60982,13.0384294Q9.70619,13.0192611,9.80397,13.00963055Q9.90175,13,10,13L25,13Q25.0982,13,25.196,13.00963055Q25.2938,13.0192611,25.3902,13.0384294Q25.4865,13.0575978,25.5806,13.0861193Q25.6746,13.114641,25.7654,13.152241Q25.8561,13.189841,25.9428,13.236157Q26.0294,13.282474,26.1111,13.337061Q26.1928,13.391648,26.2688,13.453979Q26.3447,13.516311,26.4142,13.585786Q26.4837,13.655262,26.546,13.731213Q26.6083,13.807165,26.6629,13.88886Q26.7175,13.970555,26.7638,14.05721Q26.8101,14.14386,26.8477,14.23463Q26.8853,14.32541,26.9139,14.41943Q26.9424,14.51345,26.9616,14.60982Q26.9807,14.70619,26.9904,14.80397Q27,14.90175,27,15L27,18.74414Q26.9398,18.74417,26.8799,18.750329999999998Q26.82,18.75649,26.7609,18.76871Q26.7019,18.78094,26.6443,18.7991Q26.5867,18.81727,26.5311,18.84122Q26.4755,18.86516,26.4224,18.89464Q26.3693,18.924129999999998,26.3193,18.95887Q26.2692,18.99361,26.2227,19.03328Q26.1762,19.07295,26.1336,19.11715Q26.0911,19.161360000000002,26.0529,19.209690000000002Q26.0147,19.25801,25.9813,19.30999Q25.9479,19.36197,25.9195,19.417099999999998Q25.8911,19.47222,25.8681,19.52997Q25.8451,19.58772,25.8276,19.64754Q25.8101,19.707349999999998,25.7984,19.76865Q25.7866,19.82996,25.7807,19.89216Q25.7748,19.95436,25.7748,20.01687Q25.7748,20.07937,25.7807,20.14157Q25.7866,20.203780000000002,25.7984,20.26508Q25.8101,20.32638,25.8276,20.3862Q25.8451,20.44601,25.8681,20.50376Q25.8911,20.56151,25.9195,20.61664Q25.9479,20.671770000000002,25.9813,20.72374Q26.0147,20.77572,26.0529,20.82405Q26.0911,20.87237,26.1336,20.91658Q26.1762,20.96079,26.2227,21.00045Q26.2692,21.04012,26.3193,21.07486Q26.3693,21.10961,26.4224,21.13909Q26.4755,21.16858,26.5311,21.192520000000002Q26.5867,21.216459999999998,26.6443,21.23463Q26.7019,21.2528,26.7609,21.26502Q26.82,21.27724,26.8799,21.2834Q26.9398,21.28956,27,21.28959L27,25Q27,25.0982,26.9904,25.195999999999998Q26.9807,25.293799999999997,26.9616,25.3902Q26.9424,25.4865,26.9139,25.5806Q26.8853,25.674599999999998,26.8477,25.7654Q26.8101,25.856099999999998,26.7638,25.9428Q26.7175,26.029400000000003,26.6629,26.1111Q26.6083,26.1928,26.546,26.2688Q26.4837,26.3447,26.4142,26.4142Q26.3447,26.4837,26.2688,26.546Q26.1928,26.6083,26.1111,26.6629Q26.0294,26.7175,25.9428,26.7638Q25.8561,26.810200000000002,25.7654,26.8477Q25.6746,26.8853,25.5806,26.913899999999998Q25.4865,26.9424,25.3902,26.9616Q25.2938,26.9807,25.196,26.9904Q25.0982,27,25,27L10,27Q9.90175,27,9.80397,26.9904Q9.70619,26.9807,9.60982,26.9616Q9.51345,26.9424,9.41943,26.913899999999998Q9.32541,26.8853,9.23463,26.8477Q9.14386,26.8101,9.05721,26.7638Q8.970555,26.7175,8.88886,26.6629Q8.807165,26.6083,8.731214,26.546Q8.655262,26.4837,8.585786,26.4142Q8.516311,26.3447,8.453979,26.2688Q8.391648,26.1928,8.337061,26.1111Q8.282474,26.029400000000003,8.236157,25.9428Q8.189841,25.856099999999998,8.152241,25.7654Q8.114641,25.674599999999998,8.0861193,25.5806Q8.0575978,25.4865,8.0384294,25.3902Q8.0192611,25.293799999999997,8.00963055,25.195999999999998Q8,25.0982,8,25Z" fill-rule="evenodd" fill="#FFDD6E" fill-opacity="1"/></g><g transform="matrix(0.6937055587768555,0.7202587127685547,-0.6937055587768555,0.7202586531639099,17.077808225381432,-9.2046829975815)"><path d="M19.070773124694824 16.697846949100494C19.070773124694824 16.42170454126636 19.294630776465336 16.19784688949585 19.57077318429947 16.19784688949585L19.8202605843544 16.19784688949585C20.096402992188533 16.19784688949585 20.320260643959045 16.42170454126636 20.320260643959045 16.697846949100494L20.320260643959045 19.321572303771973C20.320260643959045 19.321572303771973 20.320260643959045 19.321572303771973 20.320260643959045 19.321572303771973L19.070773124694824 19.321572303771973C19.070773124694824 19.321572303771973 19.070773124694824 19.321572303771973 19.070773124694824 19.321572303771973Z" fill="#FFFFFF" fill-opacity="1"/></g><g transform="matrix(-0.6937055587768555,0.7202587127685547,0.6937055587768555,0.7202586531639099,14.707753271837191,-6.5017613638582645)"><path d="M15.318063735961914 16.697846949100494C15.318063735961914 16.42170454126636 15.541921387732426 16.19784688949585 15.818063795566559 16.19784688949585L16.06755119562149 16.19784688949585C16.343693603455623 16.19784688949585 16.567551255226135 16.42170454126636 16.567551255226135 16.697846949100494L16.567551255226135 19.321572303771973C16.567551255226135 19.321572303771973 16.567551255226135 19.321572303771973 16.567551255226135 19.321572303771973L15.318063735961914 19.321572303771973C15.318063735961914 19.321572303771973 15.318063735961914 19.321572303771973 15.318063735961914 19.321572303771973Z" fill="#FFFFFF" fill-opacity="1"/></g><g><rect x="14.129716396331787" y="18.122764587402344" width="6.129030227661133" height="1.2727261781692505" rx="0.5000000596046448" fill="#FFFFFF" fill-opacity="1"/></g><g><rect x="14.129716396331787" y="20.016634941101074" width="6.129030227661133" height="1.2727261781692505" rx="0.5000000596046448" fill="#FFFFFF" fill-opacity="1"/></g><g><rect x="16.580605506896973" y="18.122764587402344" width="1.2258058786392212" height="5.727268695831299" rx="0.5000000596046448" fill="#FFFFFF" fill-opacity="1"/></g></g><g><path d="M34.1994779296875,28.08487Q33.9250779296875,27.80094,33.6116779296875,27.5273Q33.2982779296875,27.25365,32.9472779296875,26.99165Q32.5962779296875,26.72965,32.2095779296875,26.48058Q31.8227779296875,26.2315,31.4020779296875,25.99657Q30.9813779296875,25.76164,30.5288779296875,25.542Q30.0762779296875,25.32237,29.5941779296875,25.11911Q29.1119779296875,24.91585,28.6024779296875,24.72997Q28.0930779296875,24.54408,27.5588779296875,24.37648Q27.0245779296875,24.20888,26.4682779296875,24.06038Q25.9118779296875,23.911884,25.3360779296875,23.783222Q24.7602779296875,23.654559,24.1678779296875,23.546362Q23.5754779296875,23.438165,22.9694779296875,23.350963Q22.3633779296875,23.263761,21.7465779296875,23.197983Q21.1297779296875,23.132205,20.5052779296875,23.0881726Q19.8807779296875,23.0441404,19.2515779296875,23.0220702Q18.6224779296875,23,17.9917779296875,23Q17.6445779296875,23,17.2975779296875,23.00669661Q16.950577929687498,23.0133932,16.6043779296875,23.0267765Q16.2581779296875,23.0401597,15.9131779296875,23.0602097Q15.5682779296875,23.0802596,15.2251779296875,23.106946Q14.8820779296875,23.133633,14.5411779296875,23.166917Q14.2003779296875,23.200201,13.8623779296875,23.240033Q13.5244779296875,23.279865,13.1897779296875,23.326185Q12.8550779296875,23.372505,12.5242779296875,23.425244Q12.1933779296875,23.477984,11.8668779296875,23.537064Q11.5403779296875,23.596145,11.2185779296875,23.661478Q10.8968979296875,23.726812,10.5804379296875,23.798301Q10.2639879296875,23.86979,9.9532879296875,23.947329Q9.6425879296875,24.02487,9.3381079296875,24.10834Q9.0336179296875,24.19181,8.7357979296875,24.2811Q8.437967929687499,24.37038,8.1472579296875,24.46534Q7.8565379296875,24.5603,7.5733679296875,24.66079Q7.2901979296875,24.76129,7.0149879296875,24.86717Q6.7397779296875,24.97305,6.4729379296875,25.08416Q6.2061079296875,25.19527,5.9480379296875,25.31144Q5.6899679296875,25.42762,5.4410479296875,25.54868Q5.1921379296875,25.66974,4.9527479296875,25.79552Q4.713357929687501,25.92129,4.483847929687499,26.05158Q4.2543379296875,26.18188,4.0350479296875,26.31651Q3.8157579296875,26.45113,3.6070179296875,26.58989Q3.3982779296875,26.72864,3.2003879296875,26.87132Q3.0025079296875,27.01399,2.8157779296875,27.16038Q2.6290479296875002,27.30677,2.4537479296875,27.45664Q2.2784479296875,27.60652,2.1148479296875,27.75967Q1.9512369296875,27.91282,1.7995649296875,28.06901Q1.6478939296875001,28.2252,1.5083829296875,28.38419Q1.3688729296875,28.54319,1.2417309296875,28.70476Q1.1145889296875,28.866329999999998,1.0000044106875,29.03023C1.8654129296875,31.88402,4.5164779296875,34,7.7019379296875,34L27.2816779296875,34C30.8099779296875,34,33.6826779296875,31.40403,34.1994779296875,28.08487Z" fill-rule="evenodd" fill="#FFFFFF" fill-opacity="0.20000000298023224"/></g></g></svg>