<svg xmlns="http://www.w3.org/2000/svg" xmlns:xlink="http://www.w3.org/1999/xlink" fill="none" version="1.1" width="7.000000365022842" height="7.000000365022856" viewBox="0 0 7.000000365022842 7.000000365022856"><g transform="matrix(-1,-5.2146120310681e-8,5.2146120310681e-8,-1,13.99999963497714,14.000001095068555)"><path d="M13.09808,11.500000365022856Q13.114460000000001,11.528380365022857,13.126999999999999,11.558660365022856Q13.13954,11.588940365022857,13.14803,11.620590365022856Q13.15651,11.652250365022857,13.16079,11.684740365022856Q13.16506,11.717230365022857,13.16506,11.750000365022856Q13.16506,11.782770365022856,13.16079,11.815260365022857Q13.15651,11.847750365022856,13.14803,11.879410365022856Q13.13955,11.911070365022855,13.126999999999999,11.941340365022857Q13.114460000000001,11.971620365022856,13.09808,12.000000365022856Q13.08169,12.028380365022857,13.06174,12.054380365022856Q13.041789999999999,12.080380365022856,13.01862,12.103550365022857Q12.99544,12.126730365022857,12.969439999999999,12.146680365022856Q12.94345,12.166630365022856,12.91506,12.183010365022856Q12.88668,12.199400365022857,12.85641,12.211940365022857Q12.82613,12.224480365022856,12.79447,12.232960365022857Q12.76282,12.241450365022857,12.73033,12.245720365022857Q12.69784,12.250000365022856,12.66506,12.250000365022856L8.33494,12.250000365022856Q8.30216,12.250000365022856,8.26967,12.245720365022857Q8.23718,12.241450365022857,8.20553,12.232960365022857Q8.17387,12.224480365022856,8.14359,12.211940365022857Q8.11332,12.199400365022857,8.08494,12.183010365022856Q8.05656,12.166630365022856,8.03056,12.146680365022856Q8.00456,12.126730365022857,7.981383,12.103550365022857Q7.95821,12.080380365022856,7.93826,12.054380365022856Q7.91831,12.028380365022857,7.901924,12.000000365022856Q7.885538,11.971620365022856,7.872997,11.941340365022857Q7.860456,11.911070365022855,7.851974,11.879410365022856Q7.843492,11.847750365022856,7.839214,11.815260365022857Q7.834937,11.782770365022856,7.834936,11.750000365022856Q7.834937,11.717230365022857,7.839214,11.684740365022856Q7.843492,11.652250365022857,7.851974,11.620590365022856Q7.860456,11.588940365022857,7.872997,11.558660365022856Q7.885538,11.528380365022857,7.901924,11.500000365022856L10.06699,7.750000365022856Q10.08337,7.721619365022857,10.10332,7.695619365022856Q10.12327,7.6696203650228565,10.14645,7.646447365022857Q10.16962,7.623274365022857,10.19562,7.603323365022856Q10.22162,7.583373365022856,10.25,7.5669873650228565Q10.27838,7.550601365022857,10.30866,7.538060365022856Q10.338940000000001,7.5255193650228565,10.37059,7.517037365022857Q10.40225,7.508555365022857,10.43474,7.504278365022857Q10.46723,7.500000365022856,10.5,7.500000365022856Q10.53277,7.500000365022856,10.56526,7.504278365022857Q10.59775,7.508555365022857,10.62941,7.517037365022857Q10.661059999999999,7.5255193650228565,10.69134,7.538060365022856Q10.72162,7.550601365022857,10.75,7.5669873650228565Q10.77838,7.583373365022856,10.80438,7.603323365022856Q10.83038,7.623274365022857,10.85355,7.646447365022857Q10.87673,7.6696203650228565,10.89668,7.695619365022856Q10.91663,7.721619365022857,10.93301,7.750000365022856L13.09808,11.500000365022856Z" fill="#D8D8D8" fill-opacity="1"/></g></svg>