<svg xmlns="http://www.w3.org/2000/svg" xmlns:xlink="http://www.w3.org/1999/xlink" fill="none" version="1.1" width="4.5" height="8.5" viewBox="0 0 4.5 8.5"><g transform="matrix(-1,0,0,1,8.5,0)"><path d="M8.423670000000001,0.42983Q8.5,0.356115,8.5,0.25Q8.5,0.2002719,8.48097,0.1543292Q8.46194,0.10838600000000001,8.42678,0.07322300000000001Q8.39161,0.03806000000000001,8.34567,0.01902999999999999Q8.29973,0,8.25,0Q8.14899,0,8.07633,0.07017000000000001L4.076331,3.93313L4.076225,3.93323Q4.040475,3.9678,4.020674,4.01341Q4.000873,4.05903,4.0000350000000005,4.108750000000001Q3.999198,4.1584699999999994,4.017452,4.20473Q4.035706,4.25098,4.070272,4.28673L8.0702,8.4237L8.07027,8.42377Q8.14397,8.5,8.25,8.5Q8.29973,8.5,8.34567,8.48097Q8.39161,8.46194,8.42678,8.42678Q8.46194,8.39161,8.48097,8.34567Q8.5,8.29973,8.5,8.25Q8.5,8.148900000000001,8.42973,8.076229999999999L8.42966,8.07615L4.603605,4.11902L8.423670000000001,0.42983L8.423670000000001,0.42983Z" fill-rule="evenodd" fill="#F7D9AF" fill-opacity="1"/></g></svg>