<svg xmlns="http://www.w3.org/2000/svg" xmlns:xlink="http://www.w3.org/1999/xlink" fill="none" version="1.1" width="35" height="34" viewBox="0 0 35 34"><defs><linearGradient x1="0.5" y1="0" x2="0.5" y2="0.47664061188697815" id="master_svg0_308_65865"><stop offset="0%" stop-color="#FCCAC8" stop-opacity="1"/><stop offset="100%" stop-color="#FE8D8C" stop-opacity="1"/></linearGradient><filter id="master_svg1_308_64778" filterUnits="objectBoundingBox" color-interpolation-filters="sRGB" x="0" y="0" width="35" height="10"><feFlood flood-opacity="0" result="BackgroundImageFix"/><feBlend mode="normal" in="SourceGraphic" in2="BackgroundImageFix" result="shape"/><feColorMatrix in="SourceAlpha" type="matrix" result="hardAlpha" values="0 0 0 0 0 0 0 0 0 0 0 0 0 0 0 0 0 0 127 0"/><feOffset dy="0" dx="0"/><feGaussianBlur stdDeviation="1"/><feComposite in2="hardAlpha" operator="arithmetic" k2="-1" k3="1"/><feColorMatrix type="matrix" values="0 0 0 0 1 0 0 0 0 1 0 0 0 0 1 0 0 0 0.30000001192092896 0"/><feBlend mode="normal" in2="shape" result="effect1_innerShadow"/></filter><linearGradient x1="1" y1="0.42753905057907104" x2="0" y2="0.40410155057907104" id="master_svg2_308_65374"><stop offset="0%" stop-color="#FC9598" stop-opacity="1"/><stop offset="100%" stop-color="#FAD4D1" stop-opacity="1"/></linearGradient><linearGradient x1="0.04926168546080589" y1="0.9064592719078064" x2="0.7178071141242981" y2="0.4569614827632904" id="master_svg3_308_66357"><stop offset="0%" stop-color="#FFCBCB" stop-opacity="1"/><stop offset="100%" stop-color="#FD8C8E" stop-opacity="1"/><stop offset="100%" stop-color="#FD8B8D" stop-opacity="1"/></linearGradient><filter id="master_svg4_308_65878" filterUnits="objectBoundingBox" color-interpolation-filters="sRGB" x="0" y="0" width="11" height="11.000000953674316"><feFlood flood-opacity="0" result="BackgroundImageFix"/><feBlend mode="normal" in="SourceGraphic" in2="BackgroundImageFix" result="shape"/><feColorMatrix in="SourceAlpha" type="matrix" result="hardAlpha" values="0 0 0 0 0 0 0 0 0 0 0 0 0 0 0 0 0 0 127 0"/><feOffset dy="1" dx="0"/><feGaussianBlur stdDeviation="0.5"/><feComposite in2="hardAlpha" operator="arithmetic" k2="-1" k3="1"/><feColorMatrix type="matrix" values="0 0 0 0 1 0 0 0 0 1 0 0 0 0 1 0 0 0 0.30000001192092896 0"/><feBlend mode="normal" in2="shape" result="effect1_innerShadow"/></filter><linearGradient x1="0.5" y1="0" x2="0.5" y2="1" id="master_svg5_308_65935"><stop offset="0%" stop-color="#FFF5BE" stop-opacity="1"/><stop offset="100%" stop-color="#FDBE20" stop-opacity="1"/></linearGradient><linearGradient x1="0.5" y1="0" x2="0.5" y2="1" id="master_svg6_308_65935"><stop offset="0%" stop-color="#FFF5BE" stop-opacity="1"/><stop offset="100%" stop-color="#FDBE20" stop-opacity="1"/></linearGradient><linearGradient x1="0.5" y1="0" x2="0.5" y2="1" id="master_svg7_308_65935"><stop offset="0%" stop-color="#FFF5BE" stop-opacity="1"/><stop offset="100%" stop-color="#FDBE20" stop-opacity="1"/></linearGradient><linearGradient x1="0.5" y1="0" x2="0.5" y2="1" id="master_svg8_308_65935"><stop offset="0%" stop-color="#FFF5BE" stop-opacity="1"/><stop offset="100%" stop-color="#FDBE20" stop-opacity="1"/></linearGradient><linearGradient x1="0.5" y1="0" x2="0.5" y2="1" id="master_svg9_308_65935"><stop offset="0%" stop-color="#FFF5BE" stop-opacity="1"/><stop offset="100%" stop-color="#FDBE20" stop-opacity="1"/></linearGradient></defs><g><g><rect x="9.5" y="1.5" width="15" height="22" rx="7.5" stroke="url(#master_svg0_308_65865)" fill-opacity="0" fill="none" stroke-width="3"/></g><g filter="url(#master_svg1_308_64778)"><rect x="0" y="18" width="35" height="10" rx="4" fill="url(#master_svg2_308_65374)" fill-opacity="1"/></g><g><path d="M3 20C3 12.268013502368893 9.268013502368893 6 17 6L18 6C25.731986497631105 6 32 12.268013502368893 32 20L32 30C32 32.20913899932317 30.209138999323173 34 28 34L7 34C4.790861000676827 34 3 32.20913899932317 3 30Z" fill="url(#master_svg3_308_66357)" fill-opacity="1"/></g><g filter="url(#master_svg4_308_65878)"><g><path d="M13.48664,14.160178184509277L14.79649,14.160178184509277L14.79649,13.160178184509277L13.48664,13.160178184509277Q12.659782,13.160178184509277,12.0771338,13.758767184509278Q11.5,14.351691184509278,11.5,15.187488184509277L11.5,15.575508184509278Q11.5,16.57202818450928,12.187756,17.278608184509277Q12.881026,17.99083818450928,13.86433,17.99083818450928L14.79649,17.99083818450928L14.79649,16.99083818450928L13.86433,16.99083818450928Q13.30317,16.99083818450928,12.90434,16.581108184509276Q12.5,16.165698184509278,12.5,15.575508184509278L12.5,15.187488184509277Q12.5,14.758018184509277,12.793718,14.456268184509277Q13.08192,14.160178184509277,13.48664,14.160178184509277Z" fill-rule="evenodd" fill="url(#master_svg5_308_65935)" fill-opacity="1"/></g><g transform="matrix(-1,0,0,1,46,0)"><path d="M24.48664,14.160178184509277L25.79649,14.160178184509277L25.79649,13.160178184509277L24.48664,13.160178184509277Q23.659782,13.160178184509277,23.0771338,13.758767184509278Q22.5,14.351691184509278,22.5,15.187488184509277L22.5,15.575508184509278Q22.5,16.57202818450928,23.187756,17.278608184509277Q23.881026,17.99083818450928,24.86433,17.99083818450928L25.79649,17.99083818450928L25.79649,16.99083818450928L24.86433,16.99083818450928Q24.30317,16.99083818450928,23.90434,16.581108184509276Q23.5,16.165698184509278,23.5,15.575508184509278L23.5,15.187488184509277Q23.5,14.758018184509277,23.793718,14.456268184509277Q24.08192,14.160178184509277,24.48664,14.160178184509277Z" fill-rule="evenodd" fill="url(#master_svg6_308_65935)" fill-opacity="1"/></g><g><rect x="15.120266437530518" y="22.23386859893799" width="4.383678436279297" height="0.7661319375038147" rx="0.38306596875190735" fill="url(#master_svg7_308_65935)" fill-opacity="1"/></g><g><rect x="16.878602027893066" y="19.505876064300537" width="0.7457292079925537" height="3.3026506900787354" rx="0" fill="url(#master_svg8_308_65935)" fill-opacity="1"/></g><g><path d="M13.965428829193115 13.5C13.965428829193115 12.67157287525381 14.637001704446925 12 15.465428829193115 12L19.093550205230713 12C19.921977329976905 12 20.593550205230713 12.67157287525381 20.593550205230713 13.5L20.593550205230713 16.79244565963745C20.593550205230713 18.62275083764398 19.109794695218444 20.10650634765625 17.279489517211914 20.10650634765625L17.279489517211914 20.10650634765625C15.449184339205384 20.10650634765625 13.965428829193115 18.62275083764398 13.965428829193115 16.79244565963745Z" fill="url(#master_svg9_308_65935)" fill-opacity="1"/></g></g><g><path d="M31.9214,30.79294C31.5535,32.62225,29.9377,34,28,34L7,34C4.79086,34,3,32.20914,3,30L3,29.86908Q3.257996,29.6505,3.546449,29.44045Q3.834901,29.23041,4.1525300000000005,29.02982Q4.47016,28.82924,4.81556,28.63901Q5.16096,28.44877,5.5326,28.26974Q5.90424,28.0907,6.30047,27.92365Q6.6967,27.7566,7.11576,27.60228Q7.53482,27.44796,7.97487,27.30705Q8.414909999999999,27.166150000000002,8.87398,27.03928Q9.33305,26.912406,9.80911,26.800137Q10.28517,26.687867,10.77611,26.590695Q11.26705,26.493523,11.7707,26.41188Q12.27435,26.330236,12.78847,26.264482Q13.3026,26.198729,13.8249,26.149157Q14.3472,26.0995851,14.8754,26.0664147Q15.4036,26.0332442,15.9354,26.0166221Q16.467100000000002,26,17,26Q17.601,26,18.200400000000002,26.0211372Q18.7997,26.0422745,19.394,26.0844298Q19.9883,26.126585,20.5741,26.189521Q21.16,26.252457,21.7341,26.335818Q22.3083,26.41918,22.8674,26.522497Q23.4266,26.625815,23.9677,26.748506Q24.5087,26.871197,25.0286,27.01257Q25.5485,27.15394,26.0443,27.3132Q26.5401,27.47246,27.009,27.6487Q27.4779,27.82495,27.9173,28.01719Q28.3567,28.20943,28.7641,28.41658Q29.1715,28.623730000000002,29.5446,28.84462Q29.9176,29.06551,30.2543,29.2989Q30.591,29.53229,30.8893,29.77687Q31.1877,30.02144,31.4461,30.27581Q31.7045,30.53019,31.9214,30.79294Z" fill-rule="evenodd" fill="#FFFFFF" fill-opacity="0.10000000149011612"/></g><g><rect x="10" y="25" width="14" height="3" rx="1.5" fill="#FCE8E5" fill-opacity="1"/></g></g></svg>