<svg xmlns="http://www.w3.org/2000/svg" xmlns:xlink="http://www.w3.org/1999/xlink" fill="none" version="1.1" width="30" height="30" viewBox="0 0 30 30"><defs><linearGradient x1="0.5" y1="0" x2="0.5" y2="1" id="master_svg0_433_00437"><stop offset="0%" stop-color="#FF816E" stop-opacity="1"/><stop offset="100%" stop-color="#FF6061" stop-opacity="1"/></linearGradient></defs><g><g><ellipse cx="15" cy="14.999999046325684" rx="15" ry="14.999999046325684" fill="url(#master_svg0_433_00437)" fill-opacity="1"/></g><g><path d="M21.6044,7.226415L21.4485,7L8.76703,7L8.61111,7.176101C5.38877,11.1761,5.830543,13.61635,6.402249,14.72327C6.973955,15.83018,8.091380000000001,16.53459,9.26078,16.53459L9.36473,16.53459C10.50648,16.49232,11.58692,16.02344,12.37918,15.22641C12.84694,15.75471,13.75647,16.43396,15.13376,16.43396C16.5111,16.43396,17.4985,15.67924,17.9403,15.15094C18.564,15.65408,19.8114,16.484270000000002,21.1107,16.484270000000002C21.9682,16.484270000000002,22.6959,16.15723,23.2936,15.47798C25.5284,12.98742,21.7604,7.452829,21.6044,7.226415ZM7.8575,17.0629L7.8575,21.314500000000002C7.85399,22.041800000000002,8.35458,22.680999999999997,9.07887,22.874200000000002C9.29429,22.9557,9.52327,22.9983,9.754529999999999,23L20.2531,23C21.242800000000003,23.0032,22.0688,22.2693,22.1502,21.314500000000002C22.1646,21.231299999999997,22.1733,21.147199999999998,22.1761,21.0629L22.1761,17.0629L7.8575,17.0629Z" fill="#FFFFFF" fill-opacity="1"/></g></g></svg>