<?xml version="1.0" standalone="no"?><!DOCTYPE svg PUBLIC "-//W3C//DTD SVG 1.1//EN" "http://www.w3.org/Graphics/SVG/1.1/DTD/svg11.dtd"><svg t="1724813556027" class="icon" viewBox="0 0 1024 1024" version="1.1" xmlns="http://www.w3.org/2000/svg" p-id="2586" xmlns:xlink="http://www.w3.org/1999/xlink" width="32" height="32"><path d="M512 512m-512 0a512 512 0 1 0 1024 0 512 512 0 1 0-1024 0Z" fill="#E84F4F" p-id="2587"></path><path d="M486.810394 1023.36001L228.926423 766.848018 800.467493 295.085389 1023.912001 517.191919c-2.805956 280.355619-230.904392 506.778082-511.928001 506.778081-8.445868 0-16.837737-0.215997-25.181606-0.61799l0.008 0.008z" fill="#D14747" p-id="2588"></path><path d="M268.16181 270.889767h485.350416c31.909501 0 57.781097 25.867596 57.781098 57.781098V656.089749c0 31.909501-25.867596 57.781097-57.781098 57.781097H268.16181c-31.909501 0-57.781097-25.867596-57.781097-57.781097V328.668865c0.002-31.911501 25.871596-57.779097 57.781097-57.779098z" fill="#F5C013" p-id="2589"></path><path d="M271.98975 288.785488L740.256433 246.196153l34.151467 438.42315-490.730332 40.343369-11.693818-436.181184 0.006 0.004z" fill="#E6E6E6" p-id="2590"></path><path d="M272.363744 293.871408l486.4004-12.261808 16.02575 408.105623-490.730332 40.33737-11.695818-436.181185z" fill="#FFFFFF" p-id="2591"></path><path d="M210.382713 328.662865h564.321182c20.125686 0 36.589428 16.463743 36.589429 36.589428V735.048515c0 20.125686-16.463743 36.589428-36.589429 36.589428h-527.731754c-20.125686 0-36.589428-16.463743-36.589428-36.589428V328.662865z" fill="#FFD630" p-id="2592"></path><path d="M801.625475 340.544679c5.991906 6.523898 9.667849 15.211762 9.667849 24.713614v369.796222c0 20.131685-16.463743 36.589428-36.589429 36.589428H246.980141c-10.277839 0-19.599694-4.293933-26.26759-11.177825l580.920923-419.923439h-0.007999v0.002z" fill="#FFC919" p-id="2593"></path><path d="M210.382713 735.048515V365.258293h546.495461c11.097827 0 20.183685 9.077858 20.183684 20.183684v329.430853c0 11.097827-9.077858 20.183685-20.183684 20.183685H210.382713v-0.008z" fill="#F5BE18" p-id="2594"></path><path d="M210.382713 719.174763V381.132045h531.463696c11.729817 0 21.325667 8.30187 21.325666 18.449712v301.141294c0 10.149841-9.59585 18.443712-21.325666 18.443712H210.382713v0.008z" fill="#FFD630" p-id="2595"></path><path d="M700.127061 474.530585h110.516273c10.011844 0 18.197716 8.243871 18.197715 18.197716v65.684974c0 9.947845-8.243871 18.197716-18.197715 18.197715h-110.516273c-28.017562 0-51.033203-22.967641-51.033203-51.033202v-0.008c0-28.067561 22.959641-51.033203 51.033203-51.033203v-0.006z" fill="#FFF490" p-id="2596"></path><path d="M704.214997 526.305776m-31.115514 0a31.115514 31.115514 0 1 0 62.231027 0 31.115514 31.115514 0 1 0-62.231027 0Z" fill="#F5BE18" p-id="2597"></path><path d="M704.214997 526.305776m-25.433603 0a25.433603 25.433603 0 1 0 50.867205 0 25.433603 25.433603 0 1 0-50.867205 0Z" fill="#E6E6E6" p-id="2598"></path></svg>