<svg xmlns="http://www.w3.org/2000/svg" xmlns:xlink="http://www.w3.org/1999/xlink" fill="none" version="1.1" width="50" height="50" viewBox="0 0 50 50"><g><g><ellipse cx="25" cy="25" rx="24.5" ry="24.5" fill-opacity="0" stroke-opacity="1" stroke="#EEEEEE" fill="none" stroke-width="1"/></g><g><path d="M32.076899999999995,22.6250375L28.1067,22.6250375C27.8126,22.5729675,27.7145,22.2605875,27.6655,22.1044175L27.6655,18.3039075C27.6655,17.2626985,26.8813,16.4296875,25.90099,16.4296875C25.018720000000002,16.4296875,24.2835,17.1585555,24.13645,18.0436175C23.59729,21.6358575,21.53868,22.833257500000002,20.21528,23.1977175C20.26428,23.3538875,20.26428,23.4580075,20.26428,23.562147500000002L20.26428,33.6620875C20.26428,33.8703875,20.21528,34.0785875,20.11725,34.2867875L29.7241,34.2867875C30.6554,34.0785875,31.2926,33.7141875,31.7337,32.7249875L33.7434,25.2281075C34.1355,23.8745075,33.4983,22.5729675,32.076899999999995,22.6250375ZM19.43104,33.7141875L19.43104,23.562147500000002C19.43104,23.2497675,19.03891,22.9894475,18.59778,22.9894475L17.27438,22.9894475C16.588185,22.9894475,16,23.6141975,16,24.3430675L16,32.881187499999996C16,33.6620875,16.53916,34.2867875,17.27438,34.2867875L18.59778,34.2867875C19.03891,34.2867875,19.43104,34.0264875,19.43104,33.7141875Z" fill="#D8D8D8" fill-opacity="1"/></g></g></svg>