<?xml version="1.0" encoding="UTF-8"?>
<svg width="34px" height="34px" viewBox="0 0 34 34" version="1.1" xmlns="http://www.w3.org/2000/svg" xmlns:xlink="http://www.w3.org/1999/xlink">
    <title>首页</title>
    <defs>
        <rect id="path-1" x="25" y="922" width="700" height="84"></rect>
        <filter x="-0.1%" y="-0.6%" width="100.1%" height="101.2%" filterUnits="objectBoundingBox" id="filter-2">
            <feOffset dx="0" dy="-1" in="SourceAlpha" result="shadowOffsetInner1"></feOffset>
            <feComposite in="shadowOffsetInner1" in2="SourceAlpha" operator="arithmetic" k2="-1" k3="1" result="shadowInnerInner1"></feComposite>
            <feColorMatrix values="0 0 0 0 0.923007246   0 0 0 0 0.923007246   0 0 0 0 0.923007246  0 0 0 1 0" type="matrix" in="shadowInnerInner1"></feColorMatrix>
        </filter>
    </defs>
    <g id="餐饮预订商家版" stroke="none" stroke-width="1" fill="none" fill-rule="evenodd">
        <g id="首页" transform="translate(-661.000000, -948.000000)">
            <rect fill="#FAFAFA" x="0" y="0" width="750" height="1895"></rect>
            <rect id="矩形备份-11" fill="#FFFFFF" x="25" y="922" width="700" height="346" rx="10"></rect>
            <g id="矩形" fill="black" fill-opacity="1">
                <use filter="url(#filter-2)" xlink:href="#path-1"></use>
            </g>
            <g id="列表循环" transform="translate(661.000000, 947.000000)" fill-rule="nonzero">
                <rect id="矩形" fill="#000000" opacity="0" x="0" y="0" width="34" height="33.9917891"></rect>
                <path d="M30.0692812,17.4263023 C30.0692812,13.0136104 27.898959,8.90976576 24.2625195,6.40748544 L24.2625195,6.40645639 C24.2213477,6.37764304 24.184293,6.3426222 24.1420918,6.31384204 L24.1338242,6.32718647 C23.9559438,6.19714891 23.7405702,6.12850934 23.5202305,6.13153195 C22.9481006,6.15503378 22.5030367,6.63729027 22.5256641,7.20931323 C22.5424878,7.5394242 22.718736,7.84076762 22.9982441,8.01731532 L22.994127,8.02348961 C26.1305736,10.1252519 28.0119607,13.652421 28.010123,17.4273313 C28.010123,23.5774551 23.0775,28.5871278 16.9608867,28.735344 L18.26225,27.434295 C18.4965343,27.2506885 18.639033,26.9740274 18.6524531,26.6767162 C18.6635959,26.4019284 18.5650523,26.1339775 18.378517,25.9318541 C18.1919818,25.7297307 17.9327478,25.6100057 17.6578867,25.5990371 C17.3557416,25.5905813 17.0653982,25.7164969 16.8651289,25.9428388 L16.8527773,25.9304902 L12.981625,29.8027658 L16.8630703,33.5731324 L16.8733633,33.5628419 C17.0532543,33.8218231 17.3429283,33.9829635 17.6578867,33.999258 C18.2300179,34.0206987 18.7114373,33.574866 18.7337676,33.0029069 C18.7423668,32.6495761 18.5684989,32.3166856 18.2735723,32.1218091 L18.2982754,32.0960829 L16.9588281,30.7939717 C24.212084,30.6467846 30.0692812,24.7138232 30.0692812,17.4272981 M16.1835352,6.1296092 L14.917168,7.36064973 L14.9418711,7.38637593 C14.6461878,7.58056897 14.4720831,7.91391268 14.4816758,8.26747365 C14.5043203,8.83975728 14.9851016,9.28649703 15.5575566,9.26282891 C15.8723315,9.24677398 16.1619705,9.086033 16.3420801,8.8274419 L16.3513438,8.83773238 L20.231793,5.0673326 L16.362666,1.19711513 L16.3503145,1.20740561 C16.1496988,0.981058358 15.8588851,0.855491524 15.5565273,0.864666135 C14.9851016,0.886242954 14.5403457,1.36903258 14.5619609,1.94131622 C14.5766147,2.23981929 14.7205708,2.51714297 14.9562813,2.70095304 L16.3194355,4.06480718 C9.10838086,4.2613886 3.30058984,10.1717109 3.30058984,17.4273645 C3.30058984,21.8791603 5.5069375,26.027254 9.19998828,28.52336 L10.3531328,26.8167664 C7.23008219,24.7122076 5.35836839,21.1927199 5.35971484,17.4273645 C5.35971484,11.3543862 10.1719102,6.39517005 16.1835352,6.1296092" id="形状" fill="#00ABFF"></path>
            </g>
        </g>
    </g>
</svg>