<svg xmlns="http://www.w3.org/2000/svg" xmlns:xlink="http://www.w3.org/1999/xlink" fill="none" version="1.1" width="16" height="16" viewBox="0 0 16 16"><g><g><ellipse cx="8" cy="8" rx="8" ry="8" fill="#FEF2E3" fill-opacity="1"/></g><g transform="matrix(1,0,0,-1,0,24.24242401123047)"><g><path d="M12.135302496490478,15.918692005615235C12.135302496490478,15.243872005615234,12.638942496490479,14.681942005615234,13.305242496490479,14.560462005615234C13.460742496490479,14.532022005615234,13.575742496490479,14.406302005615235,13.575742496490479,14.254332005615234L13.575742496490479,13.854062005615233C13.575742496490479,12.900938005615235,12.763342496490479,12.121212005615234,11.770332496490479,12.121212005615234L4.229672496490479,12.121212005615234C3.2366274964904784,12.121212005615234,2.4242424964904785,12.900938005615235,2.4242424964904785,13.854062005615233L2.4242424964904785,14.144222005615234C2.4242424964904785,14.296072005615233,2.5390904964904784,14.421792005615234,2.6945334964904784,14.450352005615235C3.3601754964904784,14.572312005615235,3.8631924964904787,15.133762005615235,3.8631924964904787,15.808212005615234C3.8631924964904787,16.482672005615235,3.3601754964904784,17.044112005615233,2.6945334964904784,17.166082005615234C2.5390904964904784,17.194512005615234,2.4242424964904785,17.320232005615235,2.4242424964904785,17.472212005615233L2.4242424964904785,18.145942005615233C2.4242424964904785,19.099062005615234,3.2366274964904784,19.878792005615235,4.229672496490479,19.878792005615235L11.770332496490479,19.878792005615235C12.763342496490479,19.878792005615235,13.575742496490479,19.099062005615234,13.575742496490479,18.145942005615233L13.575742496490479,17.583292005615235C13.575742496490479,17.431312005615233,13.460742496490479,17.305592005615235,13.305242496490479,17.277162005615235C12.639042496490479,17.155312005615233,12.135302496490478,16.593502005615235,12.135302496490478,15.918692005615235Z" fill="#F95F34" fill-opacity="1"/></g><g><path d="M5.86843377418518,15.67013988079071C5.6191967741851805,15.67013988079071,5.417108774185181,15.47617988079071,5.417108774185181,15.23695988079071L5.417108774185181,13.93318088079071C5.417108774185181,13.69396388079071,5.6191967741851805,13.49999988079071,5.86843377418518,13.49999988079071C6.1176717741851805,13.49999988079071,6.31975977418518,13.69396388079071,6.31975977418518,13.93318088079071L6.31975977418518,15.236839880790711C6.319885774185181,15.47617988079071,6.11779777418518,15.67013988079071,5.86843377418518,15.67013988079071ZM5.86843377418518,18.49997988079071C5.6191967741851805,18.49997988079071,5.417108774185181,18.30600988079071,5.417108774185181,18.06679988079071L5.417108774185181,16.81213988079071C5.417108774185181,16.57292988079071,5.6191967741851805,16.37895988079071,5.86843377418518,16.37895988079071C6.1176717741851805,16.37895988079071,6.31975977418518,16.57292988079071,6.31975977418518,16.81213988079071L6.31975977418518,18.06679988079071C6.319885774185181,18.30600988079071,6.11779777418518,18.49997988079071,5.86843377418518,18.49997988079071Z" fill="#FFFFFF" fill-opacity="1"/></g></g></g></svg>