<?xml version="1.0" encoding="UTF-8"?>
<svg width="80px" height="80px" viewBox="0 0 80 80" version="1.1" xmlns="http://www.w3.org/2000/svg" xmlns:xlink="http://www.w3.org/1999/xlink">
    <title>选择提现方式</title>
    <defs>
        <rect id="path-1" x="-1" y="879" width="751" height="148"></rect>
        <filter x="-0.1%" y="-0.3%" width="100.1%" height="100.7%" filterUnits="objectBoundingBox" id="filter-2">
            <feOffset dx="0" dy="-1" in="SourceAlpha" result="shadowOffsetInner1"></feOffset>
            <feComposite in="shadowOffsetInner1" in2="SourceAlpha" operator="arithmetic" k2="-1" k3="1" result="shadowInnerInner1"></feComposite>
            <feColorMatrix values="0 0 0 0 0.894117647   0 0 0 0 0.894117647   0 0 0 0 0.894117647  0 0 0 1 0" type="matrix" in="shadowInnerInner1"></feColorMatrix>
        </filter>
    </defs>
    <g id="餐饮预订商家版" stroke="none" stroke-width="1" fill="none" fill-rule="evenodd">
        <g id="选择提现方式" transform="translate(-39.000000, -913.000000)">
            <rect fill="#FAFAFA" x="0" y="0" width="750" height="1544"></rect>
            <rect id="矩形" fill-opacity="0.401414991" fill="#000000" x="0" y="0" width="750" height="1544"></rect>
            <path d="M20,747 L730,747 C741.045695,747 750,755.954305 750,767 L750,1544 L750,1544 L0,1544 L0,767 C-1.3527075e-15,755.954305 8.954305,747 20,747 Z" id="矩形" fill="#FFFFFF"></path>
            <g id="矩形备份-24" fill="black" fill-opacity="1">
                <use filter="url(#filter-2)" xlink:href="#path-1"></use>
            </g>
            <g id="微信" transform="translate(39.000000, 913.000000)" fill-rule="nonzero">
                <rect id="矩形" fill="#000000" opacity="0" x="0" y="0" width="80" height="80"></rect>
                <path d="M26.3583594,26.7052344 C24.9710937,26.7052344 23.5838281,27.6300781 23.5838281,29.0173437 C23.5838281,30.4046094 24.9710937,31.3294531 26.3583594,31.3294531 C27.745625,31.3294531 28.6705469,30.4046094 28.6705469,29.0173437 C28.6705469,27.5722656 27.7457031,26.7052344 26.3583594,26.7052344 Z M45.1445312,40.115625 C44.2196875,40.115625 43.3525781,41.0982812 43.3525781,41.9653125 C43.3525781,42.9479688 44.2774219,43.815 45.1445312,43.815 C46.5317969,43.815 47.4566406,42.8901563 47.4566406,41.9653125 C47.4566406,41.0404688 46.5317969,40.115625 45.1445312,40.115625 Z M39.1907812,31.3294531 C40.5780469,31.3294531 41.5028906,30.3467969 41.5028906,29.0173437 C41.5028906,27.6300781 40.5780469,26.7052344 39.1907812,26.7052344 C37.8035156,26.7052344 36.4161719,27.6300781 36.4161719,29.0173437 C36.4161719,30.4046094 37.8034375,31.3294531 39.1907812,31.3294531 Z M55.2023437,40.115625 C54.2774219,40.115625 53.4103906,41.0982812 53.4103906,41.9653125 C53.4103906,42.9479688 54.3352344,43.815 55.2023437,43.815 C56.5896094,43.815 57.5144531,42.8901563 57.5144531,41.9653125 C57.5144531,41.0404688 56.5896094,40.115625 55.2023437,40.115625 Z" id="形状" fill="#28C445"></path>
                <path d="M39.884375,0.23125 C17.86125,0.23125 0,18.0925 0,40.115625 C0,62.13875 17.86125,80 39.884375,80 C61.9075,80 79.76875,62.13875 79.76875,40.115625 C79.76875,18.0925 61.9075,0.23125 39.884375,0.23125 Z M32.3121094,50.346875 C30,50.346875 28.1503125,49.884375 25.95375,49.3641406 L19.5953906,52.6011719 L21.3872656,46.9942188 C16.8208594,43.7571875 14.04625,39.5375781 14.04625,34.5086719 C14.04625,25.6647656 22.3121094,18.7283594 32.3121094,18.7283594 C41.2716406,18.7283594 49.1907813,24.2774219 50.7514063,31.7341406 C50.1734375,31.6763281 49.5953906,31.6185156 49.0173438,31.6185156 C40.3467969,31.7341406 33.5259375,38.2658594 33.5259375,46.3583594 C33.5259375,47.6878906 33.7571875,48.9595312 34.1040625,50.23125 C33.5259375,50.2890625 32.8901562,50.346875 32.3121094,50.346875 Z M59.3641406,56.8207812 L60.7514063,61.4450781 L55.7803125,58.6705469 C53.9884375,59.1329687 52.13875,59.5953906 50.2889844,59.5953906 C41.5607031,59.5953906 34.6821094,53.5838281 34.6821094,46.1271875 C34.6242969,38.7283594 41.5028906,32.7167969 50.1734375,32.7167969 C58.4392969,32.7167969 65.7225781,38.7860937 65.7225781,46.185 C65.7225781,50.3467969 63.0057812,54.04625 59.3641406,56.8207812 L59.3641406,56.8207812 Z" id="形状" fill="#28C445"></path>
            </g>
        </g>
    </g>
</svg>